G04 #@! TF.GenerationSoftware,KiCad,Pcbnew,7.0.7*
G04 #@! TF.CreationDate,2023-09-29T20:48:48-07:00*
G04 #@! TF.ProjectId,feather-fc,66656174-6865-4722-9d66-632e6b696361,rev?*
G04 #@! TF.SameCoordinates,Original*
G04 #@! TF.FileFunction,Legend,Bot*
G04 #@! TF.FilePolarity,Positive*
%FSLAX46Y46*%
G04 Gerber Fmt 4.6, Leading zero omitted, Abs format (unit mm)*
G04 Created by KiCad (PCBNEW 7.0.7) date 2023-09-29 20:48:48*
%MOMM*%
%LPD*%
G01*
G04 APERTURE LIST*
%ADD10C,0.100000*%
%ADD11C,0.120000*%
G04 APERTURE END LIST*
D10*
X34117068Y-42333014D02*
X33652782Y-42333014D01*
X33652782Y-42333014D02*
X33902782Y-42618728D01*
X33902782Y-42618728D02*
X33795639Y-42618728D01*
X33795639Y-42618728D02*
X33724211Y-42654442D01*
X33724211Y-42654442D02*
X33688496Y-42690157D01*
X33688496Y-42690157D02*
X33652782Y-42761585D01*
X33652782Y-42761585D02*
X33652782Y-42940157D01*
X33652782Y-42940157D02*
X33688496Y-43011585D01*
X33688496Y-43011585D02*
X33724211Y-43047300D01*
X33724211Y-43047300D02*
X33795639Y-43083014D01*
X33795639Y-43083014D02*
X34009925Y-43083014D01*
X34009925Y-43083014D02*
X34081353Y-43047300D01*
X34081353Y-43047300D02*
X34117068Y-43011585D01*
X33402782Y-42583014D02*
X33224210Y-43083014D01*
X33224210Y-43083014D02*
X33045639Y-42583014D01*
X32295638Y-42583014D02*
X32009924Y-42583014D01*
X32188495Y-42333014D02*
X32188495Y-42975871D01*
X32188495Y-42975871D02*
X32152781Y-43047300D01*
X32152781Y-43047300D02*
X32081352Y-43083014D01*
X32081352Y-43083014D02*
X32009924Y-43083014D01*
X31652781Y-43083014D02*
X31724210Y-43047300D01*
X31724210Y-43047300D02*
X31759924Y-43011585D01*
X31759924Y-43011585D02*
X31795638Y-42940157D01*
X31795638Y-42940157D02*
X31795638Y-42725871D01*
X31795638Y-42725871D02*
X31759924Y-42654442D01*
X31759924Y-42654442D02*
X31724210Y-42618728D01*
X31724210Y-42618728D02*
X31652781Y-42583014D01*
X31652781Y-42583014D02*
X31545638Y-42583014D01*
X31545638Y-42583014D02*
X31474210Y-42618728D01*
X31474210Y-42618728D02*
X31438496Y-42654442D01*
X31438496Y-42654442D02*
X31402781Y-42725871D01*
X31402781Y-42725871D02*
X31402781Y-42940157D01*
X31402781Y-42940157D02*
X31438496Y-43011585D01*
X31438496Y-43011585D02*
X31474210Y-43047300D01*
X31474210Y-43047300D02*
X31545638Y-43083014D01*
X31545638Y-43083014D02*
X31652781Y-43083014D01*
X30617067Y-42583014D02*
X30331353Y-42583014D01*
X30509924Y-43083014D02*
X30509924Y-42440157D01*
X30509924Y-42440157D02*
X30474210Y-42368728D01*
X30474210Y-42368728D02*
X30402781Y-42333014D01*
X30402781Y-42333014D02*
X30331353Y-42333014D01*
X29795639Y-43047300D02*
X29867067Y-43083014D01*
X29867067Y-43083014D02*
X30009925Y-43083014D01*
X30009925Y-43083014D02*
X30081353Y-43047300D01*
X30081353Y-43047300D02*
X30117067Y-42975871D01*
X30117067Y-42975871D02*
X30117067Y-42690157D01*
X30117067Y-42690157D02*
X30081353Y-42618728D01*
X30081353Y-42618728D02*
X30009925Y-42583014D01*
X30009925Y-42583014D02*
X29867067Y-42583014D01*
X29867067Y-42583014D02*
X29795639Y-42618728D01*
X29795639Y-42618728D02*
X29759925Y-42690157D01*
X29759925Y-42690157D02*
X29759925Y-42761585D01*
X29759925Y-42761585D02*
X30117067Y-42833014D01*
X29117068Y-43083014D02*
X29117068Y-42690157D01*
X29117068Y-42690157D02*
X29152782Y-42618728D01*
X29152782Y-42618728D02*
X29224210Y-42583014D01*
X29224210Y-42583014D02*
X29367068Y-42583014D01*
X29367068Y-42583014D02*
X29438496Y-42618728D01*
X29117068Y-43047300D02*
X29188496Y-43083014D01*
X29188496Y-43083014D02*
X29367068Y-43083014D01*
X29367068Y-43083014D02*
X29438496Y-43047300D01*
X29438496Y-43047300D02*
X29474210Y-42975871D01*
X29474210Y-42975871D02*
X29474210Y-42904442D01*
X29474210Y-42904442D02*
X29438496Y-42833014D01*
X29438496Y-42833014D02*
X29367068Y-42797300D01*
X29367068Y-42797300D02*
X29188496Y-42797300D01*
X29188496Y-42797300D02*
X29117068Y-42761585D01*
X28867068Y-42583014D02*
X28581354Y-42583014D01*
X28759925Y-42333014D02*
X28759925Y-42975871D01*
X28759925Y-42975871D02*
X28724211Y-43047300D01*
X28724211Y-43047300D02*
X28652782Y-43083014D01*
X28652782Y-43083014D02*
X28581354Y-43083014D01*
X28331354Y-43083014D02*
X28331354Y-42333014D01*
X28009926Y-43083014D02*
X28009926Y-42690157D01*
X28009926Y-42690157D02*
X28045640Y-42618728D01*
X28045640Y-42618728D02*
X28117068Y-42583014D01*
X28117068Y-42583014D02*
X28224211Y-42583014D01*
X28224211Y-42583014D02*
X28295640Y-42618728D01*
X28295640Y-42618728D02*
X28331354Y-42654442D01*
X27367069Y-43047300D02*
X27438497Y-43083014D01*
X27438497Y-43083014D02*
X27581355Y-43083014D01*
X27581355Y-43083014D02*
X27652783Y-43047300D01*
X27652783Y-43047300D02*
X27688497Y-42975871D01*
X27688497Y-42975871D02*
X27688497Y-42690157D01*
X27688497Y-42690157D02*
X27652783Y-42618728D01*
X27652783Y-42618728D02*
X27581355Y-42583014D01*
X27581355Y-42583014D02*
X27438497Y-42583014D01*
X27438497Y-42583014D02*
X27367069Y-42618728D01*
X27367069Y-42618728D02*
X27331355Y-42690157D01*
X27331355Y-42690157D02*
X27331355Y-42761585D01*
X27331355Y-42761585D02*
X27688497Y-42833014D01*
X27009926Y-43083014D02*
X27009926Y-42583014D01*
X27009926Y-42725871D02*
X26974212Y-42654442D01*
X26974212Y-42654442D02*
X26938498Y-42618728D01*
X26938498Y-42618728D02*
X26867069Y-42583014D01*
X26867069Y-42583014D02*
X26795640Y-42583014D01*
D11*
X34420000Y-44750000D02*
X34420000Y-44150000D01*
X33720000Y-43450000D02*
X32320000Y-43450000D01*
X32320000Y-45450000D02*
X33720000Y-45450000D01*
X31620000Y-44150000D02*
X31620000Y-44750000D01*
X34420000Y-44150000D02*
G75*
G03*
X33720000Y-43450000I-699999J1D01*
G01*
X33720000Y-45450000D02*
G75*
G03*
X34420000Y-44750000I1J699999D01*
G01*
X32320000Y-43450000D02*
G75*
G03*
X31620000Y-44150000I0J-700000D01*
G01*
X31620000Y-44750000D02*
G75*
G03*
X32320000Y-45450000I700000J0D01*
G01*
M02*
