G04 #@! TF.GenerationSoftware,KiCad,Pcbnew,7.0.8*
G04 #@! TF.CreationDate,2023-11-04T12:21:20-07:00*
G04 #@! TF.ProjectId,feather-fc,66656174-6865-4722-9d66-632e6b696361,rev?*
G04 #@! TF.SameCoordinates,Original*
G04 #@! TF.FileFunction,Copper,L2,Bot*
G04 #@! TF.FilePolarity,Positive*
%FSLAX46Y46*%
G04 Gerber Fmt 4.6, Leading zero omitted, Abs format (unit mm)*
G04 Created by KiCad (PCBNEW 7.0.8) date 2023-11-04 12:21:20*
%MOMM*%
%LPD*%
G01*
G04 APERTURE LIST*
G04 Aperture macros list*
%AMRoundRect*
0 Rectangle with rounded corners*
0 $1 Rounding radius*
0 $2 $3 $4 $5 $6 $7 $8 $9 X,Y pos of 4 corners*
0 Add a 4 corners polygon primitive as box body*
4,1,4,$2,$3,$4,$5,$6,$7,$8,$9,$2,$3,0*
0 Add four circle primitives for the rounded corners*
1,1,$1+$1,$2,$3*
1,1,$1+$1,$4,$5*
1,1,$1+$1,$6,$7*
1,1,$1+$1,$8,$9*
0 Add four rect primitives between the rounded corners*
20,1,$1+$1,$2,$3,$4,$5,0*
20,1,$1+$1,$4,$5,$6,$7,0*
20,1,$1+$1,$6,$7,$8,$9,0*
20,1,$1+$1,$8,$9,$2,$3,0*%
%AMFreePoly0*
4,1,19,0.500000,-0.750000,0.000000,-0.750000,0.000000,-0.744911,-0.071157,-0.744911,-0.207708,-0.704816,-0.327430,-0.627875,-0.420627,-0.520320,-0.479746,-0.390866,-0.500000,-0.250000,-0.500000,0.250000,-0.479746,0.390866,-0.420627,0.520320,-0.327430,0.627875,-0.207708,0.704816,-0.071157,0.744911,0.000000,0.744911,0.000000,0.750000,0.500000,0.750000,0.500000,-0.750000,0.500000,-0.750000,
$1*%
%AMFreePoly1*
4,1,19,0.000000,0.744911,0.071157,0.744911,0.207708,0.704816,0.327430,0.627875,0.420627,0.520320,0.479746,0.390866,0.500000,0.250000,0.500000,-0.250000,0.479746,-0.390866,0.420627,-0.520320,0.327430,-0.627875,0.207708,-0.704816,0.071157,-0.744911,0.000000,-0.744911,0.000000,-0.750000,-0.500000,-0.750000,-0.500000,0.750000,0.000000,0.750000,0.000000,0.744911,0.000000,0.744911,
$1*%
G04 Aperture macros list end*
G04 #@! TA.AperFunction,ComponentPad*
%ADD10R,1.600000X1.600000*%
G04 #@! TD*
G04 #@! TA.AperFunction,ComponentPad*
%ADD11C,1.600000*%
G04 #@! TD*
G04 #@! TA.AperFunction,ComponentPad*
%ADD12R,1.700000X1.700000*%
G04 #@! TD*
G04 #@! TA.AperFunction,ComponentPad*
%ADD13O,1.700000X1.700000*%
G04 #@! TD*
G04 #@! TA.AperFunction,ComponentPad*
%ADD14C,2.000000*%
G04 #@! TD*
G04 #@! TA.AperFunction,ComponentPad*
%ADD15R,1.500000X1.050000*%
G04 #@! TD*
G04 #@! TA.AperFunction,ComponentPad*
%ADD16O,1.500000X1.050000*%
G04 #@! TD*
G04 #@! TA.AperFunction,ComponentPad*
%ADD17RoundRect,0.250000X0.725000X-0.600000X0.725000X0.600000X-0.725000X0.600000X-0.725000X-0.600000X0*%
G04 #@! TD*
G04 #@! TA.AperFunction,ComponentPad*
%ADD18O,1.950000X1.700000*%
G04 #@! TD*
G04 #@! TA.AperFunction,ComponentPad*
%ADD19RoundRect,0.250000X-0.725000X0.600000X-0.725000X-0.600000X0.725000X-0.600000X0.725000X0.600000X0*%
G04 #@! TD*
G04 #@! TA.AperFunction,ComponentPad*
%ADD20R,1.500000X1.000000*%
G04 #@! TD*
G04 #@! TA.AperFunction,ComponentPad*
%ADD21RoundRect,0.250000X0.500000X-0.250000X0.500000X0.250000X-0.500000X0.250000X-0.500000X-0.250000X0*%
G04 #@! TD*
G04 #@! TA.AperFunction,SMDPad,CuDef*
%ADD22FreePoly0,180.000000*%
G04 #@! TD*
G04 #@! TA.AperFunction,SMDPad,CuDef*
%ADD23FreePoly1,180.000000*%
G04 #@! TD*
G04 #@! TA.AperFunction,ViaPad*
%ADD24C,0.800000*%
G04 #@! TD*
G04 #@! TA.AperFunction,Conductor*
%ADD25C,0.300000*%
G04 #@! TD*
G04 APERTURE END LIST*
G04 #@! TA.AperFunction,EtchedComponent*
G36*
X33270000Y-44750000D02*
G01*
X32770000Y-44750000D01*
X32770000Y-44150000D01*
X33270000Y-44150000D01*
X33270000Y-44750000D01*
G37*
G04 #@! TD.AperFunction*
D10*
X31750000Y-46990000D03*
D11*
X34290000Y-46990000D03*
X36830000Y-46990000D03*
X39370000Y-46990000D03*
X41910000Y-46990000D03*
X44450000Y-46990000D03*
X46990000Y-46990000D03*
X49530000Y-46990000D03*
X52070000Y-46990000D03*
X54610000Y-46990000D03*
X57150000Y-46990000D03*
X59690000Y-46990000D03*
X62230000Y-46990000D03*
X64770000Y-46990000D03*
X67310000Y-46990000D03*
X69850000Y-46990000D03*
X69850000Y-26670000D03*
X67310000Y-26670000D03*
X64770000Y-26670000D03*
X62230000Y-26670000D03*
X59690000Y-26670000D03*
X57150000Y-26670000D03*
X54610000Y-26670000D03*
X52070000Y-26670000D03*
X49530000Y-26670000D03*
X46990000Y-26670000D03*
X44450000Y-26670000D03*
X41910000Y-26670000D03*
D12*
X74930000Y-38735000D03*
D13*
X74930000Y-36195000D03*
X74930000Y-33655000D03*
D12*
X67945000Y-30480000D03*
D13*
X65405000Y-30480000D03*
X62865000Y-30480000D03*
D12*
X67945000Y-40640000D03*
D13*
X65405000Y-40640000D03*
X62865000Y-40640000D03*
D14*
X59765000Y-42890000D03*
X53265000Y-42890000D03*
X59765000Y-38390000D03*
X53265000Y-38390000D03*
D15*
X42905000Y-38327500D03*
D16*
X42905000Y-37057500D03*
X42905000Y-35787500D03*
D14*
X53265000Y-30770000D03*
X59765000Y-30770000D03*
X53265000Y-35270000D03*
X59765000Y-35270000D03*
D12*
X67945000Y-35560000D03*
D13*
X65405000Y-35560000D03*
X62865000Y-35560000D03*
D17*
X35670000Y-41910000D03*
D18*
X35670000Y-39410000D03*
X35670000Y-36910000D03*
D12*
X67945000Y-43180000D03*
D13*
X65405000Y-43180000D03*
X62865000Y-43180000D03*
D12*
X67945000Y-38100000D03*
D13*
X65405000Y-38100000D03*
X62865000Y-38100000D03*
D12*
X72390000Y-38735000D03*
D13*
X72390000Y-36195000D03*
X72390000Y-33655000D03*
D12*
X67945000Y-33020000D03*
D13*
X65405000Y-33020000D03*
X62865000Y-33020000D03*
D19*
X48785000Y-31810000D03*
D18*
X48785000Y-34310000D03*
X48785000Y-36810000D03*
X48785000Y-39310000D03*
D20*
X29929000Y-40870000D03*
D21*
X29929000Y-39370000D03*
X29929000Y-37870000D03*
D22*
X33670000Y-44450000D03*
D23*
X32370000Y-44450000D03*
D24*
X44450000Y-41275000D03*
X45085000Y-30275000D03*
X40005000Y-30275000D03*
X48260000Y-43180000D03*
D25*
X42905000Y-37057500D02*
X43651325Y-37057500D01*
X43651325Y-37057500D02*
X44450000Y-37856175D01*
X44450000Y-37856175D02*
X44450000Y-41275000D01*
X42905000Y-35787500D02*
X36792500Y-35787500D01*
X36792500Y-35787500D02*
X35670000Y-36910000D01*
X28829000Y-41720000D02*
X28829000Y-38871472D01*
X29830472Y-37870000D02*
X29929000Y-37870000D01*
X31559000Y-44450000D02*
X28829000Y-41720000D01*
X32370000Y-44450000D02*
X31559000Y-44450000D01*
X28829000Y-38871472D02*
X29830472Y-37870000D01*
X36195000Y-41910000D02*
X40005000Y-45720000D01*
X64770000Y-46990000D02*
X63500000Y-45720000D01*
X35670000Y-41910000D02*
X36195000Y-41910000D01*
X63500000Y-45720000D02*
X40005000Y-45720000D01*
X50800000Y-28575000D02*
X50165000Y-29210000D01*
X50165000Y-29210000D02*
X50165000Y-35430000D01*
X50165000Y-35430000D02*
X48785000Y-36810000D01*
X67945000Y-28575000D02*
X50800000Y-28575000D01*
X69850000Y-26670000D02*
X67945000Y-28575000D01*
X67310000Y-26670000D02*
X66040000Y-27940000D01*
X47460000Y-37985000D02*
X48785000Y-39310000D01*
X66040000Y-27940000D02*
X50481472Y-27940000D01*
X50481472Y-27940000D02*
X47460000Y-30961472D01*
X47460000Y-30961472D02*
X47460000Y-37985000D01*
X48260000Y-43180000D02*
X51435000Y-40005000D01*
X51435000Y-40005000D02*
X51435000Y-32600000D01*
X59765000Y-30770000D02*
X53265000Y-30770000D01*
X51435000Y-32600000D02*
X53265000Y-30770000D01*
X33670000Y-44450000D02*
X33670000Y-46370000D01*
X33670000Y-46370000D02*
X34290000Y-46990000D01*
G04 #@! TA.AperFunction,Conductor*
G36*
X40783397Y-26053907D02*
G01*
X40819361Y-26103407D01*
X40819361Y-26164593D01*
X40813827Y-26178128D01*
X40807030Y-26191779D01*
X40785771Y-26234472D01*
X40724885Y-26448464D01*
X40704357Y-26670000D01*
X40724885Y-26891536D01*
X40785771Y-27105528D01*
X40884942Y-27304689D01*
X41019019Y-27482236D01*
X41183438Y-27632124D01*
X41372599Y-27749247D01*
X41580060Y-27829618D01*
X41798757Y-27870500D01*
X42021243Y-27870500D01*
X42239940Y-27829618D01*
X42447401Y-27749247D01*
X42636562Y-27632124D01*
X42800981Y-27482236D01*
X42935058Y-27304689D01*
X43034229Y-27105528D01*
X43084780Y-26927859D01*
X43118889Y-26877065D01*
X43176342Y-26856021D01*
X43235191Y-26872765D01*
X43272960Y-26920902D01*
X43275215Y-26927845D01*
X43325771Y-27105528D01*
X43424942Y-27304689D01*
X43559019Y-27482236D01*
X43723438Y-27632124D01*
X43912599Y-27749247D01*
X44120060Y-27829618D01*
X44338757Y-27870500D01*
X44561243Y-27870500D01*
X44779940Y-27829618D01*
X44987401Y-27749247D01*
X45176562Y-27632124D01*
X45340981Y-27482236D01*
X45475058Y-27304689D01*
X45574229Y-27105528D01*
X45624780Y-26927859D01*
X45658889Y-26877065D01*
X45716342Y-26856021D01*
X45775191Y-26872765D01*
X45812960Y-26920902D01*
X45815215Y-26927845D01*
X45865771Y-27105528D01*
X45964942Y-27304689D01*
X46099019Y-27482236D01*
X46263438Y-27632124D01*
X46452599Y-27749247D01*
X46660060Y-27829618D01*
X46878757Y-27870500D01*
X47101243Y-27870500D01*
X47319940Y-27829618D01*
X47527401Y-27749247D01*
X47716562Y-27632124D01*
X47880981Y-27482236D01*
X48015058Y-27304689D01*
X48114229Y-27105528D01*
X48164780Y-26927859D01*
X48198889Y-26877065D01*
X48256342Y-26856021D01*
X48315191Y-26872765D01*
X48352960Y-26920902D01*
X48355215Y-26927845D01*
X48405771Y-27105528D01*
X48504942Y-27304689D01*
X48639019Y-27482236D01*
X48803438Y-27632124D01*
X48992599Y-27749247D01*
X49200060Y-27829618D01*
X49418757Y-27870500D01*
X49533438Y-27870500D01*
X49591629Y-27889407D01*
X49627593Y-27938907D01*
X49627593Y-28000093D01*
X49603442Y-28039504D01*
X47077381Y-30565565D01*
X47028956Y-30610791D01*
X47028955Y-30610793D01*
X47005624Y-30649156D01*
X47002773Y-30653345D01*
X46975639Y-30689129D01*
X46975638Y-30689131D01*
X46968269Y-30707815D01*
X46960765Y-30722924D01*
X46950327Y-30740090D01*
X46938210Y-30783333D01*
X46936594Y-30788138D01*
X46920123Y-30829909D01*
X46920122Y-30829913D01*
X46918068Y-30849889D01*
X46914919Y-30866462D01*
X46909500Y-30885806D01*
X46909500Y-30930708D01*
X46909240Y-30935773D01*
X46904648Y-30980445D01*
X46908060Y-31000231D01*
X46909500Y-31017054D01*
X46909500Y-37975602D01*
X46907238Y-38041826D01*
X46915931Y-38077500D01*
X46917867Y-38085441D01*
X46918814Y-38090423D01*
X46924930Y-38134921D01*
X46924930Y-38134922D01*
X46932931Y-38153341D01*
X46938313Y-38169345D01*
X46943065Y-38188846D01*
X46943068Y-38188854D01*
X46965075Y-38227995D01*
X46967327Y-38232528D01*
X46968401Y-38235000D01*
X46985220Y-38273721D01*
X46997891Y-38289295D01*
X47007391Y-38303253D01*
X47017232Y-38320757D01*
X47048992Y-38352518D01*
X47052390Y-38356283D01*
X47079820Y-38390000D01*
X47080722Y-38391108D01*
X47097124Y-38402686D01*
X47110036Y-38413561D01*
X47464242Y-38767767D01*
X47492019Y-38822284D01*
X47485272Y-38876679D01*
X47465896Y-38922012D01*
X47415810Y-39141459D01*
X47415808Y-39141473D01*
X47405709Y-39366328D01*
X47435925Y-39589387D01*
X47505483Y-39803466D01*
X47612148Y-40001681D01*
X47612148Y-40001682D01*
X47752491Y-40177665D01*
X47752492Y-40177666D01*
X47922004Y-40325765D01*
X48115236Y-40441215D01*
X48325976Y-40520307D01*
X48547453Y-40560500D01*
X48547457Y-40560500D01*
X48966151Y-40560500D01*
X48966155Y-40560500D01*
X49013560Y-40556233D01*
X49134180Y-40545378D01*
X49134183Y-40545377D01*
X49134188Y-40545377D01*
X49351170Y-40485493D01*
X49553973Y-40387829D01*
X49736078Y-40255522D01*
X49891632Y-40092825D01*
X50015635Y-39904968D01*
X50104103Y-39697988D01*
X50154191Y-39478537D01*
X50164290Y-39253670D01*
X50134075Y-39030613D01*
X50064517Y-38816536D01*
X50064516Y-38816535D01*
X50064516Y-38816533D01*
X49983873Y-38666675D01*
X49957852Y-38618319D01*
X49957851Y-38618317D01*
X49817508Y-38442334D01*
X49817507Y-38442333D01*
X49675171Y-38317977D01*
X49647996Y-38294235D01*
X49454764Y-38178785D01*
X49448676Y-38176500D01*
X49387819Y-38153660D01*
X49339982Y-38115512D01*
X49323705Y-38056532D01*
X49345203Y-37999248D01*
X49379649Y-37971777D01*
X49553973Y-37887829D01*
X49736078Y-37755522D01*
X49891632Y-37592825D01*
X50015635Y-37404968D01*
X50104103Y-37197988D01*
X50154191Y-36978537D01*
X50164290Y-36753670D01*
X50134075Y-36530613D01*
X50134074Y-36530612D01*
X50134074Y-36530607D01*
X50081418Y-36368552D01*
X50081417Y-36307367D01*
X50105566Y-36267957D01*
X50547618Y-35825906D01*
X50596044Y-35780680D01*
X50619379Y-35742306D01*
X50622217Y-35738134D01*
X50649361Y-35702342D01*
X50656731Y-35683651D01*
X50664236Y-35668541D01*
X50674672Y-35651382D01*
X50686790Y-35608130D01*
X50688405Y-35603330D01*
X50688840Y-35602227D01*
X50693404Y-35590652D01*
X50732341Y-35543459D01*
X50791584Y-35528163D01*
X50848503Y-35550611D01*
X50881357Y-35602227D01*
X50884500Y-35626976D01*
X50884500Y-39735966D01*
X50865593Y-39794157D01*
X50855504Y-39805970D01*
X48314967Y-42346506D01*
X48260450Y-42374283D01*
X48256048Y-42374879D01*
X48080750Y-42394630D01*
X48080738Y-42394633D01*
X47910477Y-42454211D01*
X47910476Y-42454211D01*
X47757741Y-42550181D01*
X47630181Y-42677741D01*
X47534211Y-42830476D01*
X47534211Y-42830477D01*
X47474633Y-43000738D01*
X47474632Y-43000742D01*
X47454435Y-43180000D01*
X47474632Y-43359257D01*
X47474633Y-43359261D01*
X47534211Y-43529522D01*
X47534211Y-43529523D01*
X47630181Y-43682258D01*
X47630184Y-43682262D01*
X47757738Y-43809816D01*
X47910478Y-43905789D01*
X47962279Y-43923915D01*
X48080738Y-43965366D01*
X48080742Y-43965367D01*
X48080745Y-43965368D01*
X48260000Y-43985565D01*
X48439255Y-43965368D01*
X48609522Y-43905789D01*
X48762262Y-43809816D01*
X48889816Y-43682262D01*
X48985789Y-43529522D01*
X49045368Y-43359255D01*
X49065120Y-43183947D01*
X49090423Y-43128242D01*
X49093471Y-43125052D01*
X49328523Y-42890000D01*
X51859700Y-42890000D01*
X51878865Y-43121303D01*
X51906985Y-43232344D01*
X51935843Y-43346300D01*
X52029076Y-43558849D01*
X52156021Y-43753153D01*
X52313216Y-43923913D01*
X52496374Y-44066470D01*
X52594365Y-44119500D01*
X52660234Y-44155147D01*
X52700497Y-44176936D01*
X52920019Y-44252298D01*
X53148951Y-44290500D01*
X53381049Y-44290500D01*
X53609981Y-44252298D01*
X53829503Y-44176936D01*
X54033626Y-44066470D01*
X54216784Y-43923913D01*
X54373979Y-43753153D01*
X54500924Y-43558849D01*
X54594157Y-43346300D01*
X54651134Y-43121305D01*
X54670300Y-42890000D01*
X58359700Y-42890000D01*
X58378865Y-43121303D01*
X58406985Y-43232344D01*
X58435843Y-43346300D01*
X58529076Y-43558849D01*
X58656021Y-43753153D01*
X58813216Y-43923913D01*
X58996374Y-44066470D01*
X59094365Y-44119500D01*
X59160234Y-44155147D01*
X59200497Y-44176936D01*
X59420019Y-44252298D01*
X59648951Y-44290500D01*
X59881049Y-44290500D01*
X60109981Y-44252298D01*
X60329503Y-44176936D01*
X60533626Y-44066470D01*
X60716784Y-43923913D01*
X60873979Y-43753153D01*
X61000924Y-43558849D01*
X61094157Y-43346300D01*
X61151134Y-43121305D01*
X61170300Y-42890000D01*
X61151134Y-42658695D01*
X61094157Y-42433700D01*
X61000924Y-42221151D01*
X60873979Y-42026847D01*
X60716784Y-41856087D01*
X60615504Y-41777258D01*
X60533629Y-41713532D01*
X60533626Y-41713530D01*
X60329506Y-41603065D01*
X60313221Y-41597474D01*
X60109981Y-41527702D01*
X60109978Y-41527701D01*
X60109977Y-41527701D01*
X59881049Y-41489500D01*
X59648951Y-41489500D01*
X59420022Y-41527701D01*
X59200493Y-41603065D01*
X58996373Y-41713530D01*
X58996370Y-41713532D01*
X58813219Y-41856084D01*
X58813216Y-41856086D01*
X58813216Y-41856087D01*
X58735079Y-41940967D01*
X58656020Y-42026848D01*
X58620926Y-42080564D01*
X58529076Y-42221151D01*
X58452980Y-42394633D01*
X58435843Y-42433701D01*
X58378865Y-42658696D01*
X58359700Y-42890000D01*
X54670300Y-42890000D01*
X54651134Y-42658695D01*
X54594157Y-42433700D01*
X54500924Y-42221151D01*
X54373979Y-42026847D01*
X54216784Y-41856087D01*
X54115504Y-41777258D01*
X54033629Y-41713532D01*
X54033626Y-41713530D01*
X53829506Y-41603065D01*
X53813221Y-41597474D01*
X53609981Y-41527702D01*
X53609978Y-41527701D01*
X53609977Y-41527701D01*
X53381049Y-41489500D01*
X53148951Y-41489500D01*
X52920022Y-41527701D01*
X52700493Y-41603065D01*
X52496373Y-41713530D01*
X52496370Y-41713532D01*
X52313219Y-41856084D01*
X52313216Y-41856086D01*
X52313216Y-41856087D01*
X52235079Y-41940967D01*
X52156020Y-42026848D01*
X52120926Y-42080564D01*
X52029076Y-42221151D01*
X51952980Y-42394633D01*
X51935843Y-42433701D01*
X51878865Y-42658696D01*
X51859700Y-42890000D01*
X49328523Y-42890000D01*
X51817603Y-40400920D01*
X51866044Y-40355680D01*
X51889383Y-40317298D01*
X51892229Y-40313118D01*
X51895199Y-40309202D01*
X51919361Y-40277342D01*
X51926727Y-40258660D01*
X51934239Y-40243537D01*
X51944672Y-40226382D01*
X51956790Y-40183130D01*
X51958397Y-40178348D01*
X51974876Y-40136564D01*
X51976929Y-40116585D01*
X51980082Y-40100004D01*
X51985499Y-40080668D01*
X51985500Y-40080667D01*
X51985500Y-40035763D01*
X51985760Y-40030698D01*
X51987006Y-40018568D01*
X51990352Y-39986028D01*
X51986939Y-39966231D01*
X51985500Y-39949412D01*
X51985500Y-39284124D01*
X52004407Y-39225933D01*
X52053907Y-39189969D01*
X52094714Y-39185652D01*
X52113812Y-39187632D01*
X52739070Y-38562374D01*
X52741884Y-38575915D01*
X52811442Y-38710156D01*
X52914638Y-38820652D01*
X53043819Y-38899209D01*
X53095002Y-38913550D01*
X52466200Y-39542352D01*
X52496646Y-39566049D01*
X52700695Y-39676475D01*
X52920145Y-39751812D01*
X53148993Y-39790000D01*
X53381007Y-39790000D01*
X53609854Y-39751812D01*
X53829304Y-39676475D01*
X54033352Y-39566049D01*
X54033356Y-39566046D01*
X54063798Y-39542352D01*
X54063798Y-39542351D01*
X53436568Y-38915121D01*
X53553458Y-38864349D01*
X53670739Y-38768934D01*
X53757928Y-38645415D01*
X53788355Y-38559801D01*
X54416187Y-39187633D01*
X54500480Y-39058614D01*
X54500485Y-39058605D01*
X54593679Y-38846140D01*
X54593680Y-38846137D01*
X54650638Y-38621220D01*
X54669797Y-38390000D01*
X58360202Y-38390000D01*
X58379361Y-38621220D01*
X58436318Y-38846137D01*
X58529517Y-39058609D01*
X58613812Y-39187632D01*
X59239070Y-38562374D01*
X59241884Y-38575915D01*
X59311442Y-38710156D01*
X59414638Y-38820652D01*
X59543819Y-38899209D01*
X59595002Y-38913550D01*
X58966200Y-39542352D01*
X58996646Y-39566049D01*
X59200695Y-39676475D01*
X59420145Y-39751812D01*
X59648993Y-39790000D01*
X59881007Y-39790000D01*
X60109854Y-39751812D01*
X60329304Y-39676475D01*
X60533352Y-39566049D01*
X60533356Y-39566046D01*
X60563798Y-39542352D01*
X60563798Y-39542351D01*
X59936568Y-38915121D01*
X60053458Y-38864349D01*
X60170739Y-38768934D01*
X60257928Y-38645415D01*
X60288355Y-38559801D01*
X60916187Y-39187633D01*
X61000480Y-39058614D01*
X61000485Y-39058605D01*
X61093679Y-38846140D01*
X61093680Y-38846137D01*
X61150638Y-38621220D01*
X61169797Y-38390000D01*
X61150638Y-38158779D01*
X61093680Y-37933862D01*
X61093679Y-37933859D01*
X61000485Y-37721394D01*
X61000480Y-37721385D01*
X60916187Y-37592365D01*
X60290929Y-38217622D01*
X60288116Y-38204085D01*
X60218558Y-38069844D01*
X60115362Y-37959348D01*
X59986181Y-37880791D01*
X59934994Y-37866449D01*
X60563798Y-37237646D01*
X60563798Y-37237645D01*
X60533362Y-37213956D01*
X60533353Y-37213951D01*
X60329304Y-37103524D01*
X60109854Y-37028187D01*
X59881007Y-36990000D01*
X59648993Y-36990000D01*
X59420145Y-37028187D01*
X59200695Y-37103524D01*
X58996647Y-37213950D01*
X58996647Y-37213951D01*
X58966200Y-37237646D01*
X59593432Y-37864878D01*
X59476542Y-37915651D01*
X59359261Y-38011066D01*
X59272072Y-38134585D01*
X59241645Y-38220198D01*
X58613811Y-37592365D01*
X58529518Y-37721388D01*
X58529516Y-37721391D01*
X58436318Y-37933862D01*
X58379361Y-38158779D01*
X58360202Y-38390000D01*
X54669797Y-38390000D01*
X54650638Y-38158779D01*
X54593680Y-37933862D01*
X54593679Y-37933859D01*
X54500485Y-37721394D01*
X54500480Y-37721385D01*
X54416187Y-37592365D01*
X53790929Y-38217622D01*
X53788116Y-38204085D01*
X53718558Y-38069844D01*
X53615362Y-37959348D01*
X53486181Y-37880791D01*
X53434994Y-37866449D01*
X54063798Y-37237646D01*
X54063798Y-37237645D01*
X54033362Y-37213956D01*
X54033353Y-37213951D01*
X53829304Y-37103524D01*
X53609854Y-37028187D01*
X53381007Y-36990000D01*
X53148993Y-36990000D01*
X52920145Y-37028187D01*
X52700695Y-37103524D01*
X52496647Y-37213950D01*
X52496647Y-37213951D01*
X52466200Y-37237646D01*
X53093432Y-37864878D01*
X52976542Y-37915651D01*
X52859261Y-38011066D01*
X52772072Y-38134585D01*
X52741645Y-38220198D01*
X52113811Y-37592364D01*
X52094712Y-37594345D01*
X52034881Y-37581541D01*
X51994003Y-37536015D01*
X51985500Y-37495873D01*
X51985500Y-36164124D01*
X52004407Y-36105933D01*
X52053907Y-36069969D01*
X52094714Y-36065652D01*
X52113812Y-36067632D01*
X52739070Y-35442374D01*
X52741884Y-35455915D01*
X52811442Y-35590156D01*
X52914638Y-35700652D01*
X53043819Y-35779209D01*
X53095002Y-35793550D01*
X52466200Y-36422352D01*
X52496646Y-36446049D01*
X52700695Y-36556475D01*
X52920145Y-36631812D01*
X53148993Y-36670000D01*
X53381007Y-36670000D01*
X53609854Y-36631812D01*
X53829304Y-36556475D01*
X54033352Y-36446049D01*
X54033356Y-36446046D01*
X54063798Y-36422352D01*
X54063798Y-36422351D01*
X53436568Y-35795121D01*
X53553458Y-35744349D01*
X53670739Y-35648934D01*
X53757928Y-35525415D01*
X53788355Y-35439801D01*
X54416187Y-36067633D01*
X54500480Y-35938614D01*
X54500485Y-35938605D01*
X54593679Y-35726140D01*
X54593680Y-35726137D01*
X54650638Y-35501220D01*
X54669797Y-35270000D01*
X58360202Y-35270000D01*
X58379361Y-35501220D01*
X58436318Y-35726137D01*
X58529517Y-35938609D01*
X58613812Y-36067632D01*
X59239070Y-35442374D01*
X59241884Y-35455915D01*
X59311442Y-35590156D01*
X59414638Y-35700652D01*
X59543819Y-35779209D01*
X59595002Y-35793550D01*
X58966200Y-36422352D01*
X58996646Y-36446049D01*
X59200695Y-36556475D01*
X59420145Y-36631812D01*
X59648993Y-36670000D01*
X59881007Y-36670000D01*
X60109854Y-36631812D01*
X60329304Y-36556475D01*
X60533352Y-36446049D01*
X60533356Y-36446046D01*
X60563798Y-36422352D01*
X60563798Y-36422351D01*
X59936568Y-35795121D01*
X60053458Y-35744349D01*
X60170739Y-35648934D01*
X60257928Y-35525415D01*
X60288355Y-35439801D01*
X60916187Y-36067633D01*
X61000480Y-35938614D01*
X61000485Y-35938605D01*
X61093679Y-35726140D01*
X61093680Y-35726137D01*
X61150638Y-35501220D01*
X61169797Y-35270000D01*
X61150638Y-35038779D01*
X61093680Y-34813862D01*
X61093679Y-34813859D01*
X61000485Y-34601394D01*
X61000480Y-34601385D01*
X60916187Y-34472365D01*
X60290929Y-35097622D01*
X60288116Y-35084085D01*
X60218558Y-34949844D01*
X60115362Y-34839348D01*
X59986181Y-34760791D01*
X59934994Y-34746449D01*
X60563798Y-34117646D01*
X60563798Y-34117645D01*
X60533362Y-34093956D01*
X60533353Y-34093951D01*
X60329304Y-33983524D01*
X60109854Y-33908187D01*
X59881007Y-33870000D01*
X59648993Y-33870000D01*
X59420145Y-33908187D01*
X59200695Y-33983524D01*
X58996647Y-34093950D01*
X58996647Y-34093951D01*
X58966200Y-34117646D01*
X59593432Y-34744878D01*
X59476542Y-34795651D01*
X59359261Y-34891066D01*
X59272072Y-35014585D01*
X59241645Y-35100198D01*
X58613811Y-34472365D01*
X58529518Y-34601388D01*
X58529516Y-34601391D01*
X58436318Y-34813862D01*
X58379361Y-35038779D01*
X58360202Y-35270000D01*
X54669797Y-35270000D01*
X54650638Y-35038779D01*
X54593680Y-34813862D01*
X54593679Y-34813859D01*
X54500485Y-34601394D01*
X54500480Y-34601385D01*
X54416187Y-34472365D01*
X53790929Y-35097622D01*
X53788116Y-35084085D01*
X53718558Y-34949844D01*
X53615362Y-34839348D01*
X53486181Y-34760791D01*
X53434994Y-34746449D01*
X54063798Y-34117646D01*
X54063798Y-34117645D01*
X54033362Y-34093956D01*
X54033353Y-34093951D01*
X53829304Y-33983524D01*
X53609854Y-33908187D01*
X53381007Y-33870000D01*
X53148993Y-33870000D01*
X52920145Y-33908187D01*
X52700695Y-33983524D01*
X52496647Y-34093950D01*
X52496647Y-34093951D01*
X52466200Y-34117646D01*
X53093432Y-34744878D01*
X52976542Y-34795651D01*
X52859261Y-34891066D01*
X52772072Y-35014585D01*
X52741645Y-35100198D01*
X52113811Y-34472364D01*
X52094712Y-34474345D01*
X52034881Y-34461541D01*
X51994003Y-34416015D01*
X51985500Y-34375873D01*
X51985500Y-32869032D01*
X52004407Y-32810841D01*
X52014490Y-32799034D01*
X52698555Y-32114968D01*
X52753072Y-32087192D01*
X52800703Y-32091336D01*
X52920019Y-32132298D01*
X53148951Y-32170500D01*
X53381049Y-32170500D01*
X53609981Y-32132298D01*
X53829503Y-32056936D01*
X54033626Y-31946470D01*
X54216784Y-31803913D01*
X54373979Y-31633153D01*
X54500924Y-31438849D01*
X54526855Y-31379731D01*
X54567545Y-31334038D01*
X54617517Y-31320500D01*
X58412483Y-31320500D01*
X58470674Y-31339407D01*
X58503144Y-31379731D01*
X58529076Y-31438849D01*
X58656021Y-31633153D01*
X58813216Y-31803913D01*
X58996374Y-31946470D01*
X59200497Y-32056936D01*
X59420019Y-32132298D01*
X59648951Y-32170500D01*
X59881049Y-32170500D01*
X60109981Y-32132298D01*
X60329503Y-32056936D01*
X60533626Y-31946470D01*
X60716784Y-31803913D01*
X60873979Y-31633153D01*
X61000924Y-31438849D01*
X61094157Y-31226300D01*
X61151134Y-31001305D01*
X61170300Y-30770000D01*
X61151134Y-30538695D01*
X61094157Y-30313700D01*
X61000924Y-30101151D01*
X60873979Y-29906847D01*
X60716784Y-29736087D01*
X60540031Y-29598515D01*
X60533629Y-29593532D01*
X60533626Y-29593530D01*
X60329506Y-29483065D01*
X60282340Y-29466873D01*
X60109981Y-29407702D01*
X60109978Y-29407701D01*
X60109977Y-29407701D01*
X59881049Y-29369500D01*
X59648951Y-29369500D01*
X59420022Y-29407701D01*
X59200493Y-29483065D01*
X58996373Y-29593530D01*
X58996370Y-29593532D01*
X58813219Y-29736084D01*
X58813216Y-29736086D01*
X58813216Y-29736087D01*
X58731822Y-29824505D01*
X58656020Y-29906848D01*
X58608228Y-29980000D01*
X58531841Y-30096920D01*
X58529075Y-30101153D01*
X58503145Y-30160268D01*
X58462455Y-30205962D01*
X58412483Y-30219500D01*
X54617517Y-30219500D01*
X54559326Y-30200593D01*
X54526855Y-30160268D01*
X54522001Y-30149202D01*
X54500924Y-30101151D01*
X54373979Y-29906847D01*
X54216784Y-29736087D01*
X54040031Y-29598515D01*
X54033629Y-29593532D01*
X54033626Y-29593530D01*
X53829506Y-29483065D01*
X53782340Y-29466873D01*
X53609981Y-29407702D01*
X53609978Y-29407701D01*
X53609977Y-29407701D01*
X53381049Y-29369500D01*
X53148951Y-29369500D01*
X52920022Y-29407701D01*
X52700493Y-29483065D01*
X52496373Y-29593530D01*
X52496370Y-29593532D01*
X52313219Y-29736084D01*
X52313216Y-29736086D01*
X52313216Y-29736087D01*
X52231822Y-29824505D01*
X52156020Y-29906848D01*
X52108228Y-29980000D01*
X52029076Y-30101151D01*
X51935843Y-30313700D01*
X51921414Y-30370678D01*
X51878865Y-30538696D01*
X51859700Y-30770000D01*
X51878865Y-31001303D01*
X51878867Y-31001312D01*
X51935844Y-31226306D01*
X51937434Y-31229930D01*
X51943492Y-31290815D01*
X51916775Y-31339697D01*
X51052381Y-32204093D01*
X51003956Y-32249319D01*
X51003955Y-32249321D01*
X50980624Y-32287684D01*
X50977773Y-32291873D01*
X50950639Y-32327657D01*
X50950638Y-32327659D01*
X50943269Y-32346343D01*
X50935765Y-32361452D01*
X50925327Y-32378618D01*
X50913211Y-32421860D01*
X50911596Y-32426663D01*
X50906600Y-32439332D01*
X50867667Y-32486533D01*
X50808426Y-32501835D01*
X50751505Y-32479393D01*
X50718646Y-32427780D01*
X50715500Y-32403021D01*
X50715500Y-29479033D01*
X50734407Y-29420842D01*
X50744496Y-29409029D01*
X50999029Y-29154496D01*
X51053546Y-29126719D01*
X51069033Y-29125500D01*
X62364238Y-29125500D01*
X62422429Y-29144407D01*
X62458393Y-29193907D01*
X62458393Y-29255093D01*
X62422429Y-29304593D01*
X62406077Y-29314224D01*
X62237371Y-29392892D01*
X62237364Y-29392896D01*
X62058127Y-29518398D01*
X61903398Y-29673127D01*
X61777896Y-29852364D01*
X61777892Y-29852372D01*
X61685426Y-30050666D01*
X61628791Y-30262030D01*
X61609723Y-30479996D01*
X61609723Y-30480000D01*
X61628791Y-30697969D01*
X61628792Y-30697976D01*
X61628793Y-30697977D01*
X61685425Y-30909330D01*
X61777898Y-31107639D01*
X61783349Y-31115424D01*
X61880043Y-31253518D01*
X61903402Y-31286877D01*
X62058123Y-31441598D01*
X62237361Y-31567102D01*
X62435670Y-31659575D01*
X62435671Y-31659575D01*
X62437172Y-31660275D01*
X62481920Y-31702004D01*
X62493595Y-31762065D01*
X62467737Y-31817518D01*
X62437172Y-31839724D01*
X62237372Y-31932892D01*
X62237364Y-31932896D01*
X62058127Y-32058398D01*
X61903398Y-32213127D01*
X61777896Y-32392364D01*
X61777892Y-32392372D01*
X61685426Y-32590666D01*
X61628791Y-32802030D01*
X61609723Y-33019996D01*
X61609723Y-33020003D01*
X61628791Y-33237969D01*
X61628792Y-33237976D01*
X61628793Y-33237977D01*
X61685425Y-33449330D01*
X61777898Y-33647639D01*
X61903402Y-33826877D01*
X62058123Y-33981598D01*
X62058126Y-33981600D01*
X62058127Y-33981601D01*
X62077464Y-33995141D01*
X62237361Y-34107102D01*
X62435670Y-34199575D01*
X62435671Y-34199575D01*
X62437172Y-34200275D01*
X62481920Y-34242004D01*
X62493595Y-34302065D01*
X62467737Y-34357518D01*
X62437172Y-34379724D01*
X62237372Y-34472892D01*
X62237364Y-34472896D01*
X62058127Y-34598398D01*
X61903398Y-34753127D01*
X61777896Y-34932364D01*
X61777892Y-34932372D01*
X61685426Y-35130666D01*
X61628791Y-35342030D01*
X61609723Y-35559996D01*
X61609723Y-35560003D01*
X61628791Y-35777969D01*
X61628792Y-35777976D01*
X61628793Y-35777977D01*
X61685425Y-35989330D01*
X61777898Y-36187639D01*
X61785910Y-36199081D01*
X61901603Y-36364309D01*
X61903402Y-36366877D01*
X62058123Y-36521598D01*
X62237361Y-36647102D01*
X62435670Y-36739575D01*
X62435671Y-36739575D01*
X62437172Y-36740275D01*
X62481920Y-36782004D01*
X62493595Y-36842065D01*
X62467737Y-36897518D01*
X62437172Y-36919724D01*
X62237372Y-37012892D01*
X62237364Y-37012896D01*
X62058127Y-37138398D01*
X61903398Y-37293127D01*
X61777896Y-37472364D01*
X61777892Y-37472372D01*
X61685426Y-37670666D01*
X61628791Y-37882030D01*
X61609723Y-38099996D01*
X61609723Y-38100003D01*
X61628791Y-38317969D01*
X61628792Y-38317976D01*
X61628793Y-38317977D01*
X61685425Y-38529330D01*
X61777898Y-38727639D01*
X61789041Y-38743553D01*
X61898032Y-38899209D01*
X61903402Y-38906877D01*
X62058123Y-39061598D01*
X62237361Y-39187102D01*
X62435670Y-39279575D01*
X62435671Y-39279575D01*
X62437172Y-39280275D01*
X62481920Y-39322004D01*
X62493595Y-39382065D01*
X62467737Y-39437518D01*
X62437172Y-39459724D01*
X62237372Y-39552892D01*
X62237364Y-39552896D01*
X62058127Y-39678398D01*
X61903398Y-39833127D01*
X61777896Y-40012364D01*
X61777892Y-40012372D01*
X61685426Y-40210666D01*
X61628791Y-40422030D01*
X61609723Y-40639996D01*
X61609723Y-40640003D01*
X61628791Y-40857969D01*
X61628792Y-40857976D01*
X61628793Y-40857977D01*
X61685425Y-41069330D01*
X61777898Y-41267639D01*
X61903402Y-41446877D01*
X62058123Y-41601598D01*
X62058126Y-41601600D01*
X62058127Y-41601601D01*
X62067754Y-41608342D01*
X62237361Y-41727102D01*
X62435670Y-41819575D01*
X62435671Y-41819575D01*
X62437172Y-41820275D01*
X62481920Y-41862004D01*
X62493595Y-41922065D01*
X62467737Y-41977518D01*
X62437172Y-41999724D01*
X62237372Y-42092892D01*
X62237364Y-42092896D01*
X62058127Y-42218398D01*
X61903398Y-42373127D01*
X61777896Y-42552364D01*
X61777892Y-42552372D01*
X61685426Y-42750666D01*
X61628791Y-42962030D01*
X61609723Y-43179996D01*
X61609723Y-43180000D01*
X61628791Y-43397969D01*
X61628792Y-43397976D01*
X61628793Y-43397977D01*
X61685425Y-43609330D01*
X61777898Y-43807639D01*
X61779424Y-43809818D01*
X61902482Y-43985564D01*
X61903402Y-43986877D01*
X62058123Y-44141598D01*
X62237361Y-44267102D01*
X62435670Y-44359575D01*
X62647023Y-44416207D01*
X62647027Y-44416207D01*
X62647030Y-44416208D01*
X62864997Y-44435277D01*
X62865000Y-44435277D01*
X62865003Y-44435277D01*
X63082969Y-44416208D01*
X63082970Y-44416207D01*
X63082977Y-44416207D01*
X63294330Y-44359575D01*
X63492639Y-44267102D01*
X63671877Y-44141598D01*
X63826598Y-43986877D01*
X63952102Y-43807639D01*
X64044575Y-43609330D01*
X64044576Y-43609325D01*
X64045275Y-43607827D01*
X64087004Y-43563079D01*
X64147065Y-43551404D01*
X64202518Y-43577262D01*
X64224725Y-43607827D01*
X64225423Y-43609325D01*
X64225425Y-43609330D01*
X64317898Y-43807639D01*
X64319424Y-43809818D01*
X64442482Y-43985564D01*
X64443402Y-43986877D01*
X64598123Y-44141598D01*
X64777361Y-44267102D01*
X64975670Y-44359575D01*
X65187023Y-44416207D01*
X65187027Y-44416207D01*
X65187030Y-44416208D01*
X65404997Y-44435277D01*
X65405000Y-44435277D01*
X65405003Y-44435277D01*
X65622969Y-44416208D01*
X65622970Y-44416207D01*
X65622977Y-44416207D01*
X65834330Y-44359575D01*
X66032639Y-44267102D01*
X66211877Y-44141598D01*
X66366598Y-43986877D01*
X66492102Y-43807639D01*
X66506275Y-43777242D01*
X66548001Y-43732495D01*
X66608062Y-43720819D01*
X66663516Y-43746675D01*
X66693180Y-43800188D01*
X66695000Y-43819081D01*
X66695000Y-44061483D01*
X66695001Y-44061485D01*
X66709833Y-44155141D01*
X66709836Y-44155151D01*
X66767358Y-44268043D01*
X66856956Y-44357641D01*
X66969848Y-44415163D01*
X66969852Y-44415164D01*
X67063515Y-44429999D01*
X67694998Y-44429999D01*
X67695000Y-44429998D01*
X67695000Y-43615501D01*
X67802685Y-43664680D01*
X67909237Y-43680000D01*
X67980763Y-43680000D01*
X68087315Y-43664680D01*
X68195000Y-43615501D01*
X68195000Y-44429998D01*
X68195001Y-44429999D01*
X68826483Y-44429999D01*
X68826485Y-44429998D01*
X68920141Y-44415166D01*
X68920151Y-44415163D01*
X69033043Y-44357641D01*
X69122641Y-44268043D01*
X69180163Y-44155151D01*
X69180164Y-44155147D01*
X69195000Y-44061484D01*
X69195000Y-43430001D01*
X69194999Y-43430000D01*
X68378686Y-43430000D01*
X68404493Y-43389844D01*
X68445000Y-43251889D01*
X68445000Y-43108111D01*
X68404493Y-42970156D01*
X68378686Y-42930000D01*
X69194998Y-42930000D01*
X69194999Y-42929999D01*
X69194999Y-42298516D01*
X69194998Y-42298514D01*
X69180166Y-42204858D01*
X69180163Y-42204848D01*
X69122641Y-42091956D01*
X69033043Y-42002358D01*
X69024901Y-41998210D01*
X68981636Y-41954946D01*
X68972064Y-41894514D01*
X68999841Y-41839997D01*
X69024901Y-41821790D01*
X69033043Y-41817641D01*
X69122641Y-41728043D01*
X69180163Y-41615151D01*
X69180164Y-41615147D01*
X69195000Y-41521484D01*
X69195000Y-40890001D01*
X69194999Y-40890000D01*
X68378686Y-40890000D01*
X68404493Y-40849844D01*
X68445000Y-40711889D01*
X68445000Y-40568111D01*
X68404493Y-40430156D01*
X68378686Y-40390000D01*
X69194998Y-40390000D01*
X69194999Y-40389999D01*
X69194999Y-39758516D01*
X69194998Y-39758514D01*
X69180166Y-39664858D01*
X69180163Y-39664848D01*
X69122641Y-39551956D01*
X69033043Y-39462358D01*
X69024901Y-39458210D01*
X68981636Y-39414946D01*
X68972064Y-39354514D01*
X68999841Y-39299997D01*
X69024901Y-39281790D01*
X69033043Y-39277641D01*
X69122641Y-39188043D01*
X69180163Y-39075151D01*
X69180164Y-39075147D01*
X69195000Y-38981484D01*
X69195000Y-38350001D01*
X69194999Y-38350000D01*
X68378686Y-38350000D01*
X68404493Y-38309844D01*
X68445000Y-38171889D01*
X68445000Y-38028111D01*
X68404493Y-37890156D01*
X68378686Y-37850000D01*
X69194998Y-37850000D01*
X69194999Y-37849999D01*
X69194999Y-37218516D01*
X69194998Y-37218514D01*
X69180166Y-37124858D01*
X69180163Y-37124848D01*
X69122641Y-37011956D01*
X69033043Y-36922358D01*
X69024901Y-36918210D01*
X68981636Y-36874946D01*
X68972064Y-36814514D01*
X68999841Y-36759997D01*
X69024901Y-36741790D01*
X69033043Y-36737641D01*
X69122641Y-36648043D01*
X69180163Y-36535151D01*
X69180164Y-36535147D01*
X69195000Y-36441484D01*
X69195000Y-35810001D01*
X69194999Y-35810000D01*
X68378686Y-35810000D01*
X68404493Y-35769844D01*
X68445000Y-35631889D01*
X68445000Y-35488111D01*
X68404493Y-35350156D01*
X68378686Y-35310000D01*
X69194998Y-35310000D01*
X69194999Y-35309999D01*
X69194999Y-34678516D01*
X69194998Y-34678514D01*
X69180166Y-34584858D01*
X69180163Y-34584848D01*
X69122641Y-34471956D01*
X69033043Y-34382358D01*
X69024901Y-34378210D01*
X68981636Y-34334946D01*
X68972064Y-34274514D01*
X68999841Y-34219997D01*
X69024901Y-34201790D01*
X69033043Y-34197641D01*
X69122641Y-34108043D01*
X69180163Y-33995151D01*
X69180164Y-33995147D01*
X69195000Y-33901484D01*
X69195000Y-33270001D01*
X69194999Y-33270000D01*
X68378686Y-33270000D01*
X68404493Y-33229844D01*
X68445000Y-33091889D01*
X68445000Y-32948111D01*
X68404493Y-32810156D01*
X68378686Y-32770000D01*
X69194998Y-32770000D01*
X69194999Y-32769999D01*
X69194999Y-32138516D01*
X69194998Y-32138514D01*
X69180166Y-32044858D01*
X69180163Y-32044848D01*
X69122641Y-31931956D01*
X69033043Y-31842358D01*
X69024901Y-31838210D01*
X68981636Y-31794946D01*
X68972064Y-31734514D01*
X68999841Y-31679997D01*
X69024901Y-31661790D01*
X69033043Y-31657641D01*
X69122641Y-31568043D01*
X69180163Y-31455151D01*
X69180164Y-31455147D01*
X69195000Y-31361484D01*
X69195000Y-30730001D01*
X69194999Y-30730000D01*
X68378686Y-30730000D01*
X68404493Y-30689844D01*
X68445000Y-30551889D01*
X68445000Y-30408111D01*
X68404493Y-30270156D01*
X68378686Y-30230000D01*
X69194998Y-30230000D01*
X69194999Y-30229999D01*
X69194999Y-29598516D01*
X69194998Y-29598514D01*
X69180166Y-29504858D01*
X69180163Y-29504848D01*
X69122641Y-29391956D01*
X69033043Y-29302358D01*
X68920151Y-29244836D01*
X68920147Y-29244835D01*
X68826484Y-29230000D01*
X68290695Y-29230000D01*
X68232504Y-29211093D01*
X68196540Y-29161593D01*
X68196540Y-29100407D01*
X68229391Y-29055191D01*
X68228466Y-29054054D01*
X68233718Y-29049780D01*
X68233720Y-29049780D01*
X68249298Y-29037105D01*
X68263257Y-29027606D01*
X68280755Y-29017768D01*
X68280754Y-29017768D01*
X68280759Y-29017766D01*
X68312529Y-28985994D01*
X68316275Y-28982615D01*
X68351108Y-28954278D01*
X68362687Y-28937872D01*
X68373557Y-28924966D01*
X69440065Y-27858458D01*
X69494580Y-27830683D01*
X69528255Y-27831149D01*
X69738757Y-27870500D01*
X69738758Y-27870500D01*
X69961243Y-27870500D01*
X70179940Y-27829618D01*
X70387401Y-27749247D01*
X70576562Y-27632124D01*
X70740981Y-27482236D01*
X70875058Y-27304689D01*
X70932379Y-27189572D01*
X70975242Y-27145910D01*
X71035583Y-27135781D01*
X71090354Y-27163054D01*
X71118634Y-27217311D01*
X71120000Y-27233701D01*
X71120000Y-30480000D01*
X75061753Y-30480000D01*
X75068220Y-30480424D01*
X75083306Y-30482410D01*
X75181489Y-30495336D01*
X75206447Y-30502023D01*
X75302960Y-30542000D01*
X75325336Y-30554918D01*
X75408216Y-30618515D01*
X75426484Y-30636783D01*
X75480990Y-30707815D01*
X75490079Y-30719660D01*
X75503000Y-30742041D01*
X75514582Y-30770000D01*
X75542975Y-30838548D01*
X75549664Y-30863512D01*
X75564576Y-30976779D01*
X75565000Y-30983247D01*
X75565000Y-32415931D01*
X75546093Y-32474122D01*
X75496593Y-32510086D01*
X75435407Y-32510086D01*
X75424162Y-32505656D01*
X75359331Y-32475425D01*
X75177348Y-32426663D01*
X75147977Y-32418793D01*
X75147976Y-32418792D01*
X75147969Y-32418791D01*
X74930003Y-32399723D01*
X74929997Y-32399723D01*
X74712030Y-32418791D01*
X74500666Y-32475426D01*
X74302372Y-32567892D01*
X74302364Y-32567896D01*
X74123127Y-32693398D01*
X73968398Y-32848127D01*
X73842896Y-33027364D01*
X73842892Y-33027372D01*
X73749724Y-33227172D01*
X73707996Y-33271920D01*
X73647935Y-33283595D01*
X73592482Y-33257737D01*
X73570276Y-33227172D01*
X73477107Y-33027372D01*
X73477103Y-33027364D01*
X73351601Y-32848127D01*
X73351600Y-32848126D01*
X73351598Y-32848123D01*
X73196877Y-32693402D01*
X73196873Y-32693399D01*
X73196872Y-32693398D01*
X73056413Y-32595048D01*
X73017639Y-32567898D01*
X72819330Y-32475425D01*
X72607977Y-32418793D01*
X72607976Y-32418792D01*
X72607969Y-32418791D01*
X72390003Y-32399723D01*
X72389997Y-32399723D01*
X72172030Y-32418791D01*
X71960666Y-32475426D01*
X71762372Y-32567892D01*
X71762364Y-32567896D01*
X71583127Y-32693398D01*
X71428398Y-32848127D01*
X71302896Y-33027364D01*
X71302892Y-33027372D01*
X71210426Y-33225666D01*
X71153791Y-33437030D01*
X71134723Y-33654996D01*
X71134723Y-33655003D01*
X71153791Y-33872969D01*
X71153792Y-33872976D01*
X71153793Y-33872977D01*
X71210425Y-34084330D01*
X71302898Y-34282639D01*
X71355329Y-34357518D01*
X71428166Y-34461541D01*
X71428402Y-34461877D01*
X71583123Y-34616598D01*
X71762361Y-34742102D01*
X71960670Y-34834575D01*
X71960671Y-34834575D01*
X71962172Y-34835275D01*
X72006920Y-34877004D01*
X72018595Y-34937065D01*
X71992737Y-34992518D01*
X71962172Y-35014724D01*
X71762372Y-35107892D01*
X71762364Y-35107896D01*
X71583127Y-35233398D01*
X71428398Y-35388127D01*
X71302896Y-35567364D01*
X71302892Y-35567372D01*
X71210426Y-35765666D01*
X71153791Y-35977030D01*
X71134723Y-36194996D01*
X71134723Y-36195003D01*
X71153791Y-36412969D01*
X71153792Y-36412976D01*
X71153793Y-36412977D01*
X71210425Y-36624330D01*
X71302898Y-36822639D01*
X71355329Y-36897518D01*
X71420085Y-36990000D01*
X71428402Y-37001877D01*
X71583123Y-37156598D01*
X71762361Y-37282102D01*
X71762362Y-37282102D01*
X71762363Y-37282103D01*
X71762369Y-37282106D01*
X71792755Y-37296275D01*
X71837504Y-37338002D01*
X71849180Y-37398063D01*
X71823323Y-37453516D01*
X71769810Y-37483181D01*
X71750918Y-37485000D01*
X71508516Y-37485000D01*
X71508514Y-37485001D01*
X71414858Y-37499833D01*
X71414848Y-37499836D01*
X71301956Y-37557358D01*
X71212358Y-37646956D01*
X71154836Y-37759848D01*
X71154835Y-37759852D01*
X71140000Y-37853515D01*
X71140000Y-38484999D01*
X71140001Y-38485000D01*
X71956314Y-38485000D01*
X71930507Y-38525156D01*
X71890000Y-38663111D01*
X71890000Y-38806889D01*
X71930507Y-38944844D01*
X71956314Y-38985000D01*
X71140002Y-38985000D01*
X71140001Y-38985001D01*
X71140001Y-39616485D01*
X71154833Y-39710141D01*
X71154836Y-39710151D01*
X71212358Y-39823043D01*
X71301956Y-39912641D01*
X71414848Y-39970163D01*
X71414852Y-39970164D01*
X71508515Y-39984999D01*
X72139998Y-39984999D01*
X72140000Y-39984998D01*
X72140000Y-39170501D01*
X72247685Y-39219680D01*
X72354237Y-39235000D01*
X72425763Y-39235000D01*
X72532315Y-39219680D01*
X72640000Y-39170501D01*
X72640000Y-39984998D01*
X72640001Y-39984999D01*
X73271483Y-39984999D01*
X73271485Y-39984998D01*
X73365141Y-39970166D01*
X73365151Y-39970163D01*
X73478043Y-39912641D01*
X73567641Y-39823043D01*
X73571790Y-39814901D01*
X73615054Y-39771636D01*
X73675486Y-39762064D01*
X73730003Y-39789841D01*
X73748210Y-39814901D01*
X73752358Y-39823043D01*
X73841956Y-39912641D01*
X73954848Y-39970163D01*
X73954852Y-39970164D01*
X74048515Y-39984999D01*
X74679998Y-39984999D01*
X74680000Y-39984998D01*
X74680000Y-39170501D01*
X74787685Y-39219680D01*
X74894237Y-39235000D01*
X74965763Y-39235000D01*
X75072315Y-39219680D01*
X75180000Y-39170501D01*
X75180000Y-39984998D01*
X75180001Y-39984999D01*
X75466000Y-39984999D01*
X75524191Y-40003906D01*
X75560155Y-40053406D01*
X75565000Y-40083999D01*
X75565000Y-42676752D01*
X75564576Y-42683220D01*
X75549664Y-42796487D01*
X75542975Y-42821451D01*
X75503001Y-42917957D01*
X75490079Y-42940339D01*
X75426487Y-43023213D01*
X75408213Y-43041487D01*
X75325339Y-43105079D01*
X75302957Y-43118001D01*
X75206451Y-43157975D01*
X75181487Y-43164664D01*
X75068221Y-43179576D01*
X75061753Y-43180000D01*
X71120000Y-43180000D01*
X71120000Y-43679998D01*
X71120000Y-46426298D01*
X71101093Y-46484489D01*
X71051593Y-46520453D01*
X70990407Y-46520453D01*
X70940907Y-46484489D01*
X70932379Y-46470426D01*
X70910668Y-46426826D01*
X70875058Y-46355311D01*
X70740981Y-46177764D01*
X70576562Y-46027876D01*
X70387401Y-45910753D01*
X70179940Y-45830382D01*
X70179939Y-45830381D01*
X70179937Y-45830381D01*
X69961243Y-45789500D01*
X69738757Y-45789500D01*
X69520062Y-45830381D01*
X69518818Y-45830863D01*
X69312599Y-45910753D01*
X69123438Y-46027876D01*
X68959020Y-46177763D01*
X68824943Y-46355309D01*
X68824938Y-46355318D01*
X68725772Y-46554469D01*
X68725771Y-46554472D01*
X68675219Y-46732140D01*
X68641111Y-46782934D01*
X68583658Y-46803978D01*
X68524809Y-46787234D01*
X68487040Y-46739097D01*
X68484784Y-46732154D01*
X68434229Y-46554472D01*
X68335058Y-46355311D01*
X68200981Y-46177764D01*
X68036562Y-46027876D01*
X67847401Y-45910753D01*
X67639940Y-45830382D01*
X67639939Y-45830381D01*
X67639937Y-45830381D01*
X67421243Y-45789500D01*
X67198757Y-45789500D01*
X66980062Y-45830381D01*
X66978818Y-45830863D01*
X66772599Y-45910753D01*
X66583438Y-46027876D01*
X66419020Y-46177763D01*
X66284943Y-46355309D01*
X66284938Y-46355318D01*
X66185772Y-46554469D01*
X66185771Y-46554472D01*
X66135219Y-46732140D01*
X66101111Y-46782934D01*
X66043658Y-46803978D01*
X65984809Y-46787234D01*
X65947040Y-46739097D01*
X65944784Y-46732154D01*
X65894229Y-46554472D01*
X65795058Y-46355311D01*
X65660981Y-46177764D01*
X65496562Y-46027876D01*
X65307401Y-45910753D01*
X65099940Y-45830382D01*
X65099939Y-45830381D01*
X65099937Y-45830381D01*
X64881243Y-45789500D01*
X64658757Y-45789500D01*
X64448259Y-45828849D01*
X64387585Y-45820956D01*
X64360065Y-45801539D01*
X63895907Y-45337382D01*
X63850682Y-45288957D01*
X63850680Y-45288956D01*
X63812319Y-45265628D01*
X63808126Y-45262774D01*
X63772345Y-45235641D01*
X63772340Y-45235638D01*
X63753654Y-45228269D01*
X63738543Y-45220763D01*
X63721382Y-45210328D01*
X63721379Y-45210327D01*
X63721380Y-45210327D01*
X63697224Y-45203558D01*
X63678137Y-45198210D01*
X63673338Y-45196596D01*
X63631567Y-45180124D01*
X63619674Y-45178901D01*
X63611576Y-45178068D01*
X63595000Y-45174917D01*
X63575667Y-45169500D01*
X63575665Y-45169500D01*
X63530763Y-45169500D01*
X63525698Y-45169240D01*
X63503169Y-45166924D01*
X63481028Y-45164648D01*
X63481026Y-45164648D01*
X63481025Y-45164648D01*
X63461239Y-45168060D01*
X63444417Y-45169500D01*
X40274033Y-45169500D01*
X40215842Y-45150593D01*
X40204029Y-45140504D01*
X37074496Y-42010971D01*
X37046719Y-41956454D01*
X37045500Y-41940967D01*
X37045500Y-41244310D01*
X37042598Y-41207434D01*
X37042598Y-41207431D01*
X36996744Y-41049602D01*
X36913081Y-40908135D01*
X36796865Y-40791919D01*
X36655398Y-40708256D01*
X36497569Y-40662402D01*
X36497566Y-40662401D01*
X36494966Y-40662197D01*
X36494657Y-40662172D01*
X36493352Y-40661632D01*
X36492590Y-40661493D01*
X36492620Y-40661328D01*
X36438130Y-40638756D01*
X36406163Y-40586586D01*
X36410965Y-40525590D01*
X36444237Y-40483385D01*
X36620748Y-40355142D01*
X36776235Y-40192516D01*
X36776235Y-40192515D01*
X36900194Y-40004726D01*
X36900197Y-40004722D01*
X36988624Y-39797833D01*
X36988625Y-39797832D01*
X37020084Y-39660000D01*
X36073969Y-39660000D01*
X36106519Y-39609351D01*
X36145000Y-39478295D01*
X36145000Y-39341705D01*
X36106519Y-39210649D01*
X36073969Y-39160000D01*
X37022550Y-39160000D01*
X37018585Y-39130727D01*
X36949054Y-38916732D01*
X36842434Y-38718598D01*
X36702144Y-38542679D01*
X36532700Y-38394641D01*
X36532696Y-38394638D01*
X36339556Y-38279241D01*
X36339545Y-38279236D01*
X36272196Y-38253959D01*
X36224360Y-38215810D01*
X36208083Y-38156830D01*
X36229582Y-38099546D01*
X36264026Y-38072078D01*
X36438973Y-37987829D01*
X36621078Y-37855522D01*
X36776632Y-37692825D01*
X36900635Y-37504968D01*
X36989103Y-37297988D01*
X37039191Y-37078537D01*
X37049290Y-36853670D01*
X37019075Y-36630613D01*
X37019074Y-36630612D01*
X37019074Y-36630607D01*
X36966418Y-36468551D01*
X36966417Y-36407366D01*
X36990636Y-36367887D01*
X36991602Y-36366922D01*
X37046147Y-36339203D01*
X37061532Y-36338000D01*
X41864468Y-36338000D01*
X41922659Y-36356907D01*
X41958623Y-36406407D01*
X41958623Y-36467593D01*
X41944563Y-36495186D01*
X41883455Y-36579295D01*
X41874076Y-36592204D01*
X41874072Y-36592211D01*
X41794951Y-36769922D01*
X41794948Y-36769932D01*
X41783745Y-36822639D01*
X41754500Y-36960226D01*
X41754500Y-37154774D01*
X41783907Y-37293123D01*
X41794948Y-37345067D01*
X41794951Y-37345077D01*
X41844843Y-37457138D01*
X41851238Y-37517988D01*
X41830144Y-37556845D01*
X41831940Y-37558150D01*
X41827359Y-37564455D01*
X41769836Y-37677348D01*
X41769835Y-37677352D01*
X41755000Y-37771015D01*
X41755000Y-38077499D01*
X41755001Y-38077500D01*
X42625440Y-38077500D01*
X42586722Y-38119559D01*
X42536449Y-38234170D01*
X42526114Y-38358895D01*
X42556837Y-38480219D01*
X42620394Y-38577500D01*
X41755002Y-38577500D01*
X41755001Y-38577501D01*
X41755001Y-38883985D01*
X41769833Y-38977641D01*
X41769836Y-38977651D01*
X41827358Y-39090543D01*
X41916956Y-39180141D01*
X42029848Y-39237663D01*
X42029852Y-39237664D01*
X42123515Y-39252499D01*
X42654998Y-39252499D01*
X42655000Y-39252498D01*
X42655000Y-38608117D01*
X42724052Y-38661863D01*
X42842424Y-38702500D01*
X42936073Y-38702500D01*
X43028446Y-38687086D01*
X43138514Y-38627519D01*
X43155000Y-38609610D01*
X43155000Y-39252498D01*
X43155001Y-39252499D01*
X43686483Y-39252499D01*
X43686485Y-39252498D01*
X43785015Y-39236895D01*
X43845447Y-39246467D01*
X43888710Y-39289732D01*
X43899500Y-39334676D01*
X43899500Y-40652414D01*
X43880593Y-40710605D01*
X43870504Y-40722417D01*
X43820185Y-40772736D01*
X43820181Y-40772741D01*
X43724211Y-40925476D01*
X43724211Y-40925477D01*
X43664633Y-41095738D01*
X43664632Y-41095742D01*
X43644435Y-41275000D01*
X43664632Y-41454257D01*
X43664633Y-41454261D01*
X43724211Y-41624522D01*
X43724211Y-41624523D01*
X43820181Y-41777258D01*
X43820184Y-41777262D01*
X43947738Y-41904816D01*
X43947740Y-41904817D01*
X43947741Y-41904818D01*
X44099898Y-42000425D01*
X44100478Y-42000789D01*
X44167654Y-42024295D01*
X44270738Y-42060366D01*
X44270742Y-42060367D01*
X44270745Y-42060368D01*
X44450000Y-42080565D01*
X44629255Y-42060368D01*
X44642433Y-42055757D01*
X44644667Y-42054974D01*
X44799522Y-42000789D01*
X44952262Y-41904816D01*
X45079816Y-41777262D01*
X45175789Y-41624522D01*
X45235368Y-41454255D01*
X45255565Y-41275000D01*
X45235368Y-41095745D01*
X45226124Y-41069328D01*
X45191647Y-40970798D01*
X45175789Y-40925478D01*
X45164892Y-40908136D01*
X45079818Y-40772741D01*
X45079814Y-40772736D01*
X45029496Y-40722417D01*
X45001719Y-40667900D01*
X45000500Y-40652414D01*
X45000500Y-37865572D01*
X45001373Y-37840000D01*
X45002762Y-37799349D01*
X44992127Y-37755712D01*
X44991185Y-37750753D01*
X44985070Y-37706255D01*
X44977067Y-37687833D01*
X44971686Y-37671828D01*
X44968949Y-37660598D01*
X44966933Y-37652323D01*
X44944922Y-37613177D01*
X44942671Y-37608646D01*
X44924780Y-37567455D01*
X44924778Y-37567453D01*
X44924779Y-37567453D01*
X44915596Y-37556166D01*
X44912108Y-37551880D01*
X44902607Y-37537919D01*
X44892768Y-37520418D01*
X44861008Y-37488657D01*
X44857610Y-37484892D01*
X44847424Y-37472372D01*
X44829278Y-37450067D01*
X44819378Y-37443079D01*
X44812871Y-37438485D01*
X44799961Y-37427611D01*
X44047231Y-36674881D01*
X44002007Y-36626457D01*
X44002005Y-36626456D01*
X43963644Y-36603128D01*
X43959451Y-36600274D01*
X43931785Y-36579295D01*
X43911512Y-36558602D01*
X43854905Y-36480690D01*
X43835997Y-36422500D01*
X43854903Y-36364311D01*
X43935922Y-36252799D01*
X44015051Y-36075071D01*
X44055500Y-35884774D01*
X44055500Y-35690226D01*
X44015051Y-35499929D01*
X44009789Y-35488111D01*
X43935927Y-35322211D01*
X43935923Y-35322204D01*
X43935922Y-35322201D01*
X43821569Y-35164808D01*
X43821565Y-35164804D01*
X43821564Y-35164803D01*
X43676994Y-35034632D01*
X43676992Y-35034630D01*
X43604052Y-34992518D01*
X43508517Y-34937360D01*
X43508512Y-34937358D01*
X43508510Y-34937357D01*
X43508508Y-34937356D01*
X43366041Y-34891066D01*
X43323483Y-34877238D01*
X43178505Y-34862000D01*
X43178504Y-34862000D01*
X42631496Y-34862000D01*
X42631494Y-34862000D01*
X42486516Y-34877238D01*
X42384833Y-34910277D01*
X42301492Y-34937356D01*
X42301490Y-34937356D01*
X42301487Y-34937358D01*
X42301482Y-34937360D01*
X42133011Y-35034628D01*
X42133005Y-35034632D01*
X41988435Y-35164803D01*
X41988431Y-35164807D01*
X41979631Y-35176920D01*
X41965629Y-35196190D01*
X41916131Y-35232154D01*
X41885538Y-35237000D01*
X36801915Y-35237000D01*
X36735675Y-35234737D01*
X36735671Y-35234737D01*
X36708572Y-35241341D01*
X36692039Y-35245370D01*
X36687071Y-35246314D01*
X36676248Y-35247802D01*
X36642580Y-35252429D01*
X36624153Y-35260433D01*
X36608160Y-35265811D01*
X36588647Y-35270567D01*
X36549509Y-35292572D01*
X36544970Y-35294826D01*
X36503779Y-35312720D01*
X36488198Y-35325395D01*
X36474252Y-35334887D01*
X36456741Y-35344734D01*
X36424984Y-35376488D01*
X36421221Y-35379884D01*
X36386392Y-35408220D01*
X36386391Y-35408221D01*
X36374810Y-35424627D01*
X36363937Y-35437536D01*
X36142629Y-35658844D01*
X36088112Y-35686621D01*
X36054948Y-35686249D01*
X35907553Y-35659500D01*
X35907547Y-35659500D01*
X35488845Y-35659500D01*
X35488842Y-35659500D01*
X35488823Y-35659501D01*
X35320819Y-35674621D01*
X35320808Y-35674623D01*
X35103831Y-35734506D01*
X35103824Y-35734509D01*
X34901029Y-35832169D01*
X34718920Y-35964479D01*
X34563371Y-36127170D01*
X34563371Y-36127171D01*
X34563369Y-36127173D01*
X34563368Y-36127175D01*
X34480452Y-36252788D01*
X34439363Y-36315035D01*
X34439362Y-36315036D01*
X34350896Y-36522012D01*
X34300810Y-36741459D01*
X34300808Y-36741473D01*
X34290709Y-36966328D01*
X34320925Y-37189387D01*
X34390483Y-37403466D01*
X34497148Y-37601681D01*
X34497148Y-37601682D01*
X34630742Y-37769202D01*
X34637492Y-37777666D01*
X34807004Y-37925765D01*
X35000236Y-38041215D01*
X35067828Y-38066582D01*
X35115663Y-38104729D01*
X35131941Y-38163710D01*
X35110443Y-38220994D01*
X35075996Y-38248465D01*
X34901285Y-38332602D01*
X34719251Y-38464857D01*
X34563764Y-38627483D01*
X34563764Y-38627484D01*
X34439805Y-38815273D01*
X34439802Y-38815277D01*
X34351375Y-39022166D01*
X34351374Y-39022167D01*
X34319915Y-39159999D01*
X34319916Y-39160000D01*
X35266031Y-39160000D01*
X35233481Y-39210649D01*
X35195000Y-39341705D01*
X35195000Y-39478295D01*
X35233481Y-39609351D01*
X35266031Y-39660000D01*
X34317449Y-39660000D01*
X34321414Y-39689272D01*
X34390945Y-39903267D01*
X34497565Y-40101401D01*
X34637855Y-40277320D01*
X34807299Y-40425358D01*
X34895312Y-40477944D01*
X34935567Y-40524021D01*
X34941052Y-40584960D01*
X34909669Y-40637484D01*
X34853408Y-40661532D01*
X34852301Y-40661625D01*
X34842431Y-40662402D01*
X34842428Y-40662402D01*
X34842427Y-40662403D01*
X34684602Y-40708256D01*
X34543136Y-40791918D01*
X34426918Y-40908136D01*
X34343256Y-41049602D01*
X34297403Y-41207427D01*
X34297401Y-41207434D01*
X34294500Y-41244310D01*
X34294500Y-42575690D01*
X34297401Y-42612565D01*
X34297401Y-42612568D01*
X34297402Y-42612569D01*
X34343256Y-42770398D01*
X34426919Y-42911865D01*
X34543135Y-43028081D01*
X34684602Y-43111744D01*
X34842431Y-43157598D01*
X34879306Y-43160500D01*
X34879310Y-43160500D01*
X36460690Y-43160500D01*
X36460694Y-43160500D01*
X36497569Y-43157598D01*
X36570364Y-43136448D01*
X36631518Y-43138369D01*
X36667988Y-43161513D01*
X39157735Y-45651260D01*
X39185512Y-45705777D01*
X39175941Y-45766209D01*
X39132676Y-45809474D01*
X39105922Y-45818578D01*
X39040200Y-45830863D01*
X38832821Y-45911202D01*
X38832816Y-45911205D01*
X38716672Y-45983118D01*
X39281769Y-46548215D01*
X39235862Y-46555135D01*
X39113643Y-46613993D01*
X39014202Y-46706260D01*
X38946375Y-46823740D01*
X38928500Y-46902054D01*
X38361137Y-46334691D01*
X38345368Y-46355574D01*
X38246239Y-46554652D01*
X38195481Y-46733052D01*
X38161371Y-46783848D01*
X38103919Y-46804892D01*
X38045069Y-46788148D01*
X38007300Y-46740011D01*
X38005044Y-46733070D01*
X37954229Y-46554472D01*
X37855058Y-46355311D01*
X37720981Y-46177764D01*
X37556562Y-46027876D01*
X37367401Y-45910753D01*
X37159940Y-45830382D01*
X37159939Y-45830381D01*
X37159937Y-45830381D01*
X36941243Y-45789500D01*
X36718757Y-45789500D01*
X36500062Y-45830381D01*
X36498818Y-45830863D01*
X36292599Y-45910753D01*
X36103438Y-46027876D01*
X35939020Y-46177763D01*
X35804943Y-46355309D01*
X35804938Y-46355318D01*
X35705772Y-46554469D01*
X35705771Y-46554472D01*
X35655219Y-46732140D01*
X35621111Y-46782934D01*
X35563658Y-46803978D01*
X35504809Y-46787234D01*
X35467040Y-46739097D01*
X35464784Y-46732154D01*
X35414229Y-46554472D01*
X35315058Y-46355311D01*
X35180981Y-46177764D01*
X35016562Y-46027876D01*
X34827401Y-45910753D01*
X34619940Y-45830382D01*
X34619939Y-45830381D01*
X34619937Y-45830381D01*
X34401243Y-45789500D01*
X34319500Y-45789500D01*
X34261309Y-45770593D01*
X34225345Y-45721093D01*
X34220500Y-45690500D01*
X34220500Y-45467680D01*
X34239407Y-45409489D01*
X34254667Y-45392863D01*
X34307250Y-45347300D01*
X34401404Y-45238639D01*
X34463800Y-45141549D01*
X34523528Y-45010764D01*
X34556045Y-44900023D01*
X34573828Y-44776341D01*
X34576507Y-44757712D01*
X34576507Y-44642292D01*
X34576500Y-44642244D01*
X34575492Y-44628151D01*
X34575492Y-44271844D01*
X34576500Y-44257754D01*
X34576507Y-44257705D01*
X34576507Y-44142287D01*
X34556045Y-43999979D01*
X34556045Y-43999977D01*
X34523528Y-43889236D01*
X34463800Y-43758451D01*
X34436502Y-43715974D01*
X34401409Y-43661368D01*
X34401400Y-43661355D01*
X34307255Y-43552705D01*
X34307237Y-43552688D01*
X34220027Y-43477120D01*
X34220015Y-43477111D01*
X34099078Y-43399390D01*
X34099071Y-43399386D01*
X34078177Y-43389844D01*
X33994084Y-43351440D01*
X33994079Y-43351438D01*
X33994078Y-43351438D01*
X33856130Y-43310933D01*
X33856124Y-43310932D01*
X33741894Y-43294508D01*
X33741889Y-43294508D01*
X33170000Y-43294508D01*
X33169997Y-43294508D01*
X33082156Y-43308420D01*
X33044696Y-43314354D01*
X33044695Y-43314354D01*
X33037001Y-43315573D01*
X33036507Y-43312455D01*
X33003493Y-43312455D01*
X33002999Y-43315573D01*
X32995304Y-43314354D01*
X32957843Y-43308420D01*
X32870003Y-43294508D01*
X32870000Y-43294508D01*
X32298111Y-43294508D01*
X32298106Y-43294508D01*
X32183875Y-43310932D01*
X32183869Y-43310933D01*
X32045921Y-43351438D01*
X32045917Y-43351439D01*
X32045916Y-43351440D01*
X32000383Y-43372233D01*
X31940928Y-43399386D01*
X31940921Y-43399390D01*
X31819984Y-43477111D01*
X31819972Y-43477120D01*
X31732762Y-43552688D01*
X31732750Y-43552699D01*
X31666581Y-43629063D01*
X31614185Y-43660658D01*
X31553224Y-43655422D01*
X31521758Y-43634234D01*
X31143996Y-43256471D01*
X31116219Y-43201955D01*
X31115000Y-43186468D01*
X31115000Y-43045001D01*
X31115000Y-43045000D01*
X31115000Y-42545000D01*
X30615001Y-42545000D01*
X30473533Y-42545000D01*
X30415342Y-42526093D01*
X30403529Y-42516004D01*
X29827028Y-41939503D01*
X29799251Y-41884986D01*
X29808822Y-41824554D01*
X29852087Y-41781289D01*
X29897032Y-41770499D01*
X30710521Y-41770499D01*
X30710522Y-41770498D01*
X30757411Y-41763072D01*
X30804299Y-41755647D01*
X30804299Y-41755646D01*
X30804304Y-41755646D01*
X30917342Y-41698050D01*
X31007050Y-41608342D01*
X31064646Y-41495304D01*
X31079500Y-41401519D01*
X31079499Y-40338482D01*
X31079499Y-40338478D01*
X31079498Y-40338476D01*
X31064647Y-40244700D01*
X31064646Y-40244698D01*
X31064646Y-40244696D01*
X31007050Y-40131658D01*
X30982498Y-40107106D01*
X30954723Y-40052592D01*
X30964294Y-39992160D01*
X30967291Y-39986710D01*
X31030280Y-39880200D01*
X31076100Y-39722489D01*
X31079000Y-39685638D01*
X31079000Y-39620001D01*
X31078999Y-39620000D01*
X30174581Y-39620000D01*
X30226060Y-39564079D01*
X30272982Y-39457108D01*
X30282628Y-39340698D01*
X30253953Y-39227462D01*
X30190064Y-39129673D01*
X30177636Y-39120000D01*
X31078999Y-39120000D01*
X31079000Y-39119999D01*
X31079000Y-39054362D01*
X31076100Y-39017510D01*
X31030280Y-38859799D01*
X31030280Y-38859798D01*
X30946685Y-38718447D01*
X30918595Y-38690357D01*
X30890818Y-38635840D01*
X30900389Y-38575408D01*
X30918595Y-38550350D01*
X30947081Y-38521865D01*
X31030744Y-38380398D01*
X31076598Y-38222569D01*
X31079500Y-38185694D01*
X31079500Y-37554306D01*
X31076598Y-37517431D01*
X31030744Y-37359602D01*
X30947081Y-37218135D01*
X30830865Y-37101919D01*
X30689398Y-37018256D01*
X30531569Y-36972402D01*
X30531568Y-36972401D01*
X30531565Y-36972401D01*
X30506298Y-36970413D01*
X30494694Y-36969500D01*
X29363306Y-36969500D01*
X29352548Y-36970346D01*
X29326434Y-36972401D01*
X29326427Y-36972403D01*
X29168602Y-37018256D01*
X29027136Y-37101918D01*
X28910918Y-37218136D01*
X28827256Y-37359602D01*
X28781403Y-37517427D01*
X28781401Y-37517434D01*
X28778500Y-37554310D01*
X28778500Y-38102439D01*
X28759593Y-38160630D01*
X28749504Y-38172442D01*
X28589344Y-38332602D01*
X28446382Y-38475564D01*
X28397956Y-38520791D01*
X28397955Y-38520793D01*
X28374624Y-38559156D01*
X28371773Y-38563345D01*
X28344639Y-38599129D01*
X28344638Y-38599131D01*
X28337269Y-38617815D01*
X28329765Y-38632924D01*
X28319327Y-38650090D01*
X28307210Y-38693333D01*
X28305594Y-38698138D01*
X28289123Y-38739909D01*
X28289122Y-38739913D01*
X28287068Y-38759889D01*
X28283919Y-38776462D01*
X28278500Y-38795806D01*
X28278500Y-38840708D01*
X28278240Y-38845773D01*
X28276798Y-38859799D01*
X28273648Y-38890444D01*
X28276481Y-38906877D01*
X28277060Y-38910231D01*
X28278500Y-38927054D01*
X28278500Y-41710602D01*
X28276238Y-41776823D01*
X28276238Y-41776827D01*
X28280231Y-41793215D01*
X28286826Y-41820275D01*
X28286867Y-41820441D01*
X28287814Y-41825423D01*
X28293930Y-41869921D01*
X28293930Y-41869922D01*
X28301931Y-41888341D01*
X28307313Y-41904345D01*
X28312065Y-41923846D01*
X28312068Y-41923854D01*
X28334075Y-41962995D01*
X28336331Y-41967536D01*
X28354220Y-42008721D01*
X28366891Y-42024295D01*
X28376391Y-42038253D01*
X28386232Y-42055757D01*
X28417992Y-42087518D01*
X28421387Y-42091280D01*
X28449722Y-42126108D01*
X28466124Y-42137686D01*
X28479036Y-42148561D01*
X28706471Y-42375996D01*
X28734248Y-42430513D01*
X28724677Y-42490945D01*
X28681412Y-42534210D01*
X28636467Y-42545000D01*
X26538247Y-42545000D01*
X26531779Y-42544576D01*
X26418512Y-42529664D01*
X26393548Y-42522975D01*
X26297042Y-42483001D01*
X26274660Y-42470079D01*
X26227252Y-42433701D01*
X26191783Y-42406484D01*
X26173515Y-42388216D01*
X26109918Y-42305336D01*
X26097000Y-42282960D01*
X26057023Y-42186447D01*
X26050336Y-42161489D01*
X26035424Y-42048219D01*
X26035000Y-42041752D01*
X26035000Y-31618247D01*
X26035424Y-31611780D01*
X26041306Y-31567102D01*
X26050336Y-31498508D01*
X26057022Y-31473554D01*
X26097001Y-31377035D01*
X26109916Y-31354666D01*
X26173518Y-31271779D01*
X26191779Y-31253518D01*
X26274666Y-31189916D01*
X26297035Y-31177001D01*
X26393554Y-31137022D01*
X26418508Y-31130336D01*
X26519332Y-31117062D01*
X26531780Y-31115424D01*
X26538247Y-31115000D01*
X30614999Y-31115000D01*
X30615000Y-31115000D01*
X31115000Y-31115000D01*
X31115000Y-26538247D01*
X31115424Y-26531780D01*
X31123921Y-26467234D01*
X31130336Y-26418508D01*
X31137022Y-26393554D01*
X31177001Y-26297035D01*
X31189916Y-26274666D01*
X31253518Y-26191779D01*
X31271779Y-26173518D01*
X31354666Y-26109916D01*
X31377035Y-26097001D01*
X31473554Y-26057022D01*
X31498508Y-26050336D01*
X31606797Y-26036080D01*
X31611780Y-26035424D01*
X31618247Y-26035000D01*
X40725206Y-26035000D01*
X40783397Y-26053907D01*
G37*
G04 #@! TD.AperFunction*
G04 #@! TA.AperFunction,Conductor*
G36*
X68195000Y-42744498D02*
G01*
X68087315Y-42695320D01*
X67980763Y-42680000D01*
X67909237Y-42680000D01*
X67802685Y-42695320D01*
X67695000Y-42744498D01*
X67695000Y-41075501D01*
X67802685Y-41124680D01*
X67909237Y-41140000D01*
X67980763Y-41140000D01*
X68087315Y-41124680D01*
X68195000Y-41075501D01*
X68195000Y-42744498D01*
G37*
G04 #@! TD.AperFunction*
G04 #@! TA.AperFunction,Conductor*
G36*
X68195000Y-40204498D02*
G01*
X68087315Y-40155320D01*
X67980763Y-40140000D01*
X67909237Y-40140000D01*
X67802685Y-40155320D01*
X67695000Y-40204498D01*
X67695000Y-38535501D01*
X67802685Y-38584680D01*
X67909237Y-38600000D01*
X67980763Y-38600000D01*
X68087315Y-38584680D01*
X68195000Y-38535501D01*
X68195000Y-40204498D01*
G37*
G04 #@! TD.AperFunction*
G04 #@! TA.AperFunction,Conductor*
G36*
X74470507Y-38525156D02*
G01*
X74430000Y-38663111D01*
X74430000Y-38806889D01*
X74470507Y-38944844D01*
X74496314Y-38985000D01*
X72823686Y-38985000D01*
X72849493Y-38944844D01*
X72890000Y-38806889D01*
X72890000Y-38663111D01*
X72849493Y-38525156D01*
X72823686Y-38485000D01*
X74496314Y-38485000D01*
X74470507Y-38525156D01*
G37*
G04 #@! TD.AperFunction*
G04 #@! TA.AperFunction,Conductor*
G36*
X68195000Y-37664498D02*
G01*
X68087315Y-37615320D01*
X67980763Y-37600000D01*
X67909237Y-37600000D01*
X67802685Y-37615320D01*
X67695000Y-37664498D01*
X67695000Y-35995501D01*
X67802685Y-36044680D01*
X67909237Y-36060000D01*
X67980763Y-36060000D01*
X68087315Y-36044680D01*
X68195000Y-35995501D01*
X68195000Y-37664498D01*
G37*
G04 #@! TD.AperFunction*
G04 #@! TA.AperFunction,Conductor*
G36*
X68195000Y-35124498D02*
G01*
X68087315Y-35075320D01*
X67980763Y-35060000D01*
X67909237Y-35060000D01*
X67802685Y-35075320D01*
X67695000Y-35124498D01*
X67695000Y-33455501D01*
X67802685Y-33504680D01*
X67909237Y-33520000D01*
X67980763Y-33520000D01*
X68087315Y-33504680D01*
X68195000Y-33455501D01*
X68195000Y-35124498D01*
G37*
G04 #@! TD.AperFunction*
G04 #@! TA.AperFunction,Conductor*
G36*
X68195000Y-32584498D02*
G01*
X68087315Y-32535320D01*
X67980763Y-32520000D01*
X67909237Y-32520000D01*
X67802685Y-32535320D01*
X67695000Y-32584498D01*
X67695000Y-30915501D01*
X67802685Y-30964680D01*
X67909237Y-30980000D01*
X67980763Y-30980000D01*
X68087315Y-30964680D01*
X68195000Y-30915501D01*
X68195000Y-32584498D01*
G37*
G04 #@! TD.AperFunction*
M02*
