M48
; DRILL file {KiCad 7.0.7} date Fri 29 Sep 2023 08:48:46 PM PDT
; FORMAT={-:-/ absolute / inch / decimal}
; #@! TF.CreationDate,2023-09-29T20:48:46-07:00
; #@! TF.GenerationSoftware,Kicad,Pcbnew,7.0.7
; #@! TF.FileFunction,Plated,1,2,PTH
FMAT,2
INCH
; #@! TA.AperFunction,Plated,PTH,ViaDrill
T1C0.0157
; #@! TA.AperFunction,Plated,PTH,ComponentDrill
T2C0.0276
; #@! TA.AperFunction,Plated,PTH,ComponentDrill
T3C0.0295
; #@! TA.AperFunction,Plated,PTH,ComponentDrill
T4C0.0315
; #@! TA.AperFunction,Plated,PTH,ComponentDrill
T5C0.0374
; #@! TA.AperFunction,Plated,PTH,ComponentDrill
T6C0.0394
; #@! TA.AperFunction,Plated,PTH,ComponentDrill
T7C0.0433
%
G90
G05
T1
X1.575Y-1.1919
X1.5914Y-1.5586
X1.775Y-1.1919
X1.9Y-1.7
T2
X1.1783Y-1.4909
X1.1783Y-1.55
X1.1783Y-1.6091
T3
X1.6892Y-1.409
X1.6892Y-1.459
X1.6892Y-1.509
T4
X1.25Y-1.85
X1.35Y-1.85
X1.45Y-1.85
X1.55Y-1.85
X1.65Y-1.05
X1.65Y-1.85
X1.75Y-1.05
X1.75Y-1.85
X1.85Y-1.05
X1.85Y-1.85
X1.95Y-1.05
X1.95Y-1.85
X2.05Y-1.05
X2.05Y-1.85
X2.15Y-1.05
X2.15Y-1.85
X2.25Y-1.05
X2.25Y-1.85
X2.35Y-1.05
X2.35Y-1.85
X2.45Y-1.05
X2.45Y-1.85
X2.55Y-1.05
X2.55Y-1.85
X2.65Y-1.05
X2.65Y-1.85
X2.75Y-1.05
X2.75Y-1.85
T5
X1.4043Y-1.4531
X1.4043Y-1.5516
X1.4043Y-1.65
X1.9207Y-1.2524
X1.9207Y-1.3508
X1.9207Y-1.4492
X1.9207Y-1.5476
T6
X2.475Y-1.2
X2.475Y-1.3
X2.475Y-1.4
X2.475Y-1.5
X2.475Y-1.6
X2.475Y-1.7
X2.575Y-1.2
X2.575Y-1.3
X2.575Y-1.4
X2.575Y-1.5
X2.575Y-1.6
X2.575Y-1.7
X2.675Y-1.2
X2.675Y-1.3
X2.675Y-1.4
X2.675Y-1.5
X2.675Y-1.6
X2.675Y-1.7
X2.85Y-1.325
X2.85Y-1.425
X2.85Y-1.525
X2.95Y-1.325
X2.95Y-1.425
X2.95Y-1.525
T7
X2.097Y-1.2114
X2.097Y-1.3886
X2.097Y-1.5114
X2.097Y-1.6886
X2.353Y-1.2114
X2.353Y-1.3886
X2.353Y-1.5114
X2.353Y-1.6886
T0
M30
