G04 #@! TF.GenerationSoftware,KiCad,Pcbnew,7.0.7*
G04 #@! TF.CreationDate,2023-09-29T20:48:47-07:00*
G04 #@! TF.ProjectId,feather-fc,66656174-6865-4722-9d66-632e6b696361,rev?*
G04 #@! TF.SameCoordinates,Original*
G04 #@! TF.FileFunction,Copper,L1,Top*
G04 #@! TF.FilePolarity,Positive*
%FSLAX46Y46*%
G04 Gerber Fmt 4.6, Leading zero omitted, Abs format (unit mm)*
G04 Created by KiCad (PCBNEW 7.0.7) date 2023-09-29 20:48:47*
%MOMM*%
%LPD*%
G01*
G04 APERTURE LIST*
G04 Aperture macros list*
%AMRoundRect*
0 Rectangle with rounded corners*
0 $1 Rounding radius*
0 $2 $3 $4 $5 $6 $7 $8 $9 X,Y pos of 4 corners*
0 Add a 4 corners polygon primitive as box body*
4,1,4,$2,$3,$4,$5,$6,$7,$8,$9,$2,$3,0*
0 Add four circle primitives for the rounded corners*
1,1,$1+$1,$2,$3*
1,1,$1+$1,$4,$5*
1,1,$1+$1,$6,$7*
1,1,$1+$1,$8,$9*
0 Add four rect primitives between the rounded corners*
20,1,$1+$1,$2,$3,$4,$5,0*
20,1,$1+$1,$4,$5,$6,$7,0*
20,1,$1+$1,$6,$7,$8,$9,0*
20,1,$1+$1,$8,$9,$2,$3,0*%
G04 Aperture macros list end*
G04 #@! TA.AperFunction,SMDPad,CuDef*
%ADD10RoundRect,0.250000X-1.100000X0.325000X-1.100000X-0.325000X1.100000X-0.325000X1.100000X0.325000X0*%
G04 #@! TD*
G04 #@! TA.AperFunction,SMDPad,CuDef*
%ADD11RoundRect,0.250000X1.100000X-0.325000X1.100000X0.325000X-1.100000X0.325000X-1.100000X-0.325000X0*%
G04 #@! TD*
G04 #@! TA.AperFunction,ComponentPad*
%ADD12R,1.700000X1.700000*%
G04 #@! TD*
G04 #@! TA.AperFunction,ComponentPad*
%ADD13O,1.700000X1.700000*%
G04 #@! TD*
G04 #@! TA.AperFunction,ComponentPad*
%ADD14C,2.000000*%
G04 #@! TD*
G04 #@! TA.AperFunction,ComponentPad*
%ADD15R,1.500000X1.050000*%
G04 #@! TD*
G04 #@! TA.AperFunction,ComponentPad*
%ADD16O,1.500000X1.050000*%
G04 #@! TD*
G04 #@! TA.AperFunction,ComponentPad*
%ADD17RoundRect,0.250000X0.725000X-0.600000X0.725000X0.600000X-0.725000X0.600000X-0.725000X-0.600000X0*%
G04 #@! TD*
G04 #@! TA.AperFunction,ComponentPad*
%ADD18O,1.950000X1.700000*%
G04 #@! TD*
G04 #@! TA.AperFunction,ComponentPad*
%ADD19RoundRect,0.250000X-0.725000X0.600000X-0.725000X-0.600000X0.725000X-0.600000X0.725000X0.600000X0*%
G04 #@! TD*
G04 #@! TA.AperFunction,SMDPad,CuDef*
%ADD20RoundRect,0.250000X0.350000X0.650000X-0.350000X0.650000X-0.350000X-0.650000X0.350000X-0.650000X0*%
G04 #@! TD*
G04 #@! TA.AperFunction,SMDPad,CuDef*
%ADD21RoundRect,0.150000X0.150000X0.625000X-0.150000X0.625000X-0.150000X-0.625000X0.150000X-0.625000X0*%
G04 #@! TD*
G04 #@! TA.AperFunction,ComponentPad*
%ADD22R,1.500000X1.000000*%
G04 #@! TD*
G04 #@! TA.AperFunction,ComponentPad*
%ADD23RoundRect,0.250000X0.500000X-0.250000X0.500000X0.250000X-0.500000X0.250000X-0.500000X-0.250000X0*%
G04 #@! TD*
G04 #@! TA.AperFunction,ComponentPad*
%ADD24R,1.600000X1.600000*%
G04 #@! TD*
G04 #@! TA.AperFunction,ComponentPad*
%ADD25C,1.600000*%
G04 #@! TD*
G04 #@! TA.AperFunction,ViaPad*
%ADD26C,0.800000*%
G04 #@! TD*
G04 #@! TA.AperFunction,Conductor*
%ADD27C,0.300000*%
G04 #@! TD*
G04 APERTURE END LIST*
D10*
X42545000Y-41070000D03*
X42545000Y-44020000D03*
D11*
X42545000Y-33225000D03*
X42545000Y-30275000D03*
D12*
X74930000Y-38735000D03*
D13*
X74930000Y-36195000D03*
X74930000Y-33655000D03*
D12*
X67945000Y-30480000D03*
D13*
X65405000Y-30480000D03*
X62865000Y-30480000D03*
D12*
X67945000Y-40640000D03*
D13*
X65405000Y-40640000D03*
X62865000Y-40640000D03*
D14*
X59765000Y-42890000D03*
X53265000Y-42890000D03*
X59765000Y-38390000D03*
X53265000Y-38390000D03*
D15*
X42905000Y-38327500D03*
D16*
X42905000Y-37057500D03*
X42905000Y-35787500D03*
D14*
X53265000Y-30770000D03*
X59765000Y-30770000D03*
X53265000Y-35270000D03*
X59765000Y-35270000D03*
D12*
X67945000Y-35560000D03*
D13*
X65405000Y-35560000D03*
X62865000Y-35560000D03*
D17*
X35670000Y-41910000D03*
D18*
X35670000Y-39410000D03*
X35670000Y-36910000D03*
D12*
X67945000Y-43180000D03*
D13*
X65405000Y-43180000D03*
X62865000Y-43180000D03*
D12*
X67945000Y-38100000D03*
D13*
X65405000Y-38100000D03*
X62865000Y-38100000D03*
D12*
X72390000Y-38735000D03*
D13*
X72390000Y-36195000D03*
X72390000Y-33655000D03*
D12*
X67945000Y-33020000D03*
D13*
X65405000Y-33020000D03*
X62865000Y-33020000D03*
D19*
X48785000Y-31810000D03*
D18*
X48785000Y-34310000D03*
X48785000Y-36810000D03*
X48785000Y-39310000D03*
D20*
X33395000Y-26065000D03*
X38995000Y-26065000D03*
D21*
X34695000Y-29940000D03*
X35695000Y-29940000D03*
X36695000Y-29940000D03*
X37695000Y-29940000D03*
D22*
X29929000Y-40870000D03*
D23*
X29929000Y-39370000D03*
X29929000Y-37870000D03*
D24*
X31750000Y-46990000D03*
D25*
X34290000Y-46990000D03*
X36830000Y-46990000D03*
X39370000Y-46990000D03*
X41910000Y-46990000D03*
X44450000Y-46990000D03*
X46990000Y-46990000D03*
X49530000Y-46990000D03*
X52070000Y-46990000D03*
X54610000Y-46990000D03*
X57150000Y-46990000D03*
X59690000Y-46990000D03*
X62230000Y-46990000D03*
X64770000Y-46990000D03*
X67310000Y-46990000D03*
X69850000Y-46990000D03*
X69850000Y-26670000D03*
X67310000Y-26670000D03*
X64770000Y-26670000D03*
X62230000Y-26670000D03*
X59690000Y-26670000D03*
X57150000Y-26670000D03*
X54610000Y-26670000D03*
X52070000Y-26670000D03*
X49530000Y-26670000D03*
X46990000Y-26670000D03*
X44450000Y-26670000D03*
X41910000Y-26670000D03*
D26*
X45085000Y-30275000D03*
X40422720Y-39587280D03*
X40005000Y-30275000D03*
X48260000Y-43180000D03*
D27*
X47250000Y-30275000D02*
X45085000Y-30275000D01*
X42545000Y-30275000D02*
X45085000Y-30275000D01*
X42545000Y-44107500D02*
X42252500Y-44107500D01*
X42252500Y-44107500D02*
X39370000Y-46990000D01*
X40422720Y-39587280D02*
X41817940Y-40982500D01*
X41817940Y-40982500D02*
X42545000Y-40982500D01*
X48785000Y-34310000D02*
X46335000Y-34310000D01*
X36695000Y-33385394D02*
X40367106Y-37057500D01*
X36695000Y-29940000D02*
X36695000Y-33385394D01*
X46335000Y-34310000D02*
X43587500Y-37057500D01*
X29929000Y-37870000D02*
X30889000Y-36910000D01*
X43587500Y-37057500D02*
X42905000Y-37057500D01*
X40367106Y-37057500D02*
X42905000Y-37057500D01*
X30889000Y-36910000D02*
X35670000Y-36910000D01*
X61805000Y-44240000D02*
X57360000Y-44240000D01*
X62865000Y-43180000D02*
X61805000Y-44240000D01*
X57360000Y-44240000D02*
X54610000Y-46990000D01*
X36195000Y-41910000D02*
X30969000Y-41910000D01*
X30969000Y-41910000D02*
X29929000Y-40870000D01*
X35695000Y-29940000D02*
X35695000Y-33092500D01*
X46392500Y-39202500D02*
X48785000Y-36810000D01*
X41805000Y-39202500D02*
X46392500Y-39202500D01*
X35695000Y-33092500D02*
X41805000Y-39202500D01*
X34695000Y-32799606D02*
X41597893Y-39702500D01*
X34695000Y-29940000D02*
X34695000Y-32799606D01*
X41597893Y-39702500D02*
X48392500Y-39702500D01*
X48392500Y-39702500D02*
X48785000Y-39310000D01*
X74930000Y-33655000D02*
X69095000Y-27820000D01*
X65920000Y-27820000D02*
X64770000Y-26670000D01*
X69095000Y-27820000D02*
X65920000Y-27820000D01*
X63880000Y-28320000D02*
X62230000Y-26670000D01*
X68257081Y-28320000D02*
X63880000Y-28320000D01*
X72390000Y-33655000D02*
X72390000Y-32452919D01*
X72390000Y-32452919D02*
X68257081Y-28320000D01*
X59690000Y-27305000D02*
X59690000Y-26670000D01*
X62865000Y-30480000D02*
X59690000Y-27305000D01*
X61115000Y-31270000D02*
X61115000Y-30000000D01*
X61115000Y-30000000D02*
X57785000Y-26670000D01*
X57785000Y-26670000D02*
X57150000Y-26670000D01*
X62865000Y-33020000D02*
X61115000Y-31270000D01*
X54610000Y-27524189D02*
X54610000Y-26670000D01*
X62645811Y-35560000D02*
X54610000Y-27524189D01*
X62865000Y-35560000D02*
X62645811Y-35560000D01*
X54781852Y-29381852D02*
X52070000Y-26670000D01*
X54781852Y-32196041D02*
X54781852Y-29381852D01*
X62865000Y-38100000D02*
X61385000Y-36620000D01*
X59205811Y-36620000D02*
X54781852Y-32196041D01*
X61385000Y-36620000D02*
X59205811Y-36620000D01*
X54615000Y-34029189D02*
X49530000Y-28944189D01*
X54615000Y-35149189D02*
X54615000Y-34029189D01*
X49530000Y-28944189D02*
X49530000Y-26670000D01*
X62865000Y-40640000D02*
X60105811Y-40640000D01*
X60105811Y-40640000D02*
X54615000Y-35149189D01*
X74930000Y-36195000D02*
X72390000Y-36195000D01*
X54240811Y-41275000D02*
X61802943Y-41275000D01*
X42905000Y-33585000D02*
X42905000Y-35560000D01*
X42660000Y-33110000D02*
X49620000Y-33110000D01*
X50800000Y-37834189D02*
X54240811Y-41275000D01*
X42545000Y-33225000D02*
X42660000Y-33110000D01*
X72390000Y-36195000D02*
X70485000Y-34290000D01*
X65405000Y-41910000D02*
X65405000Y-43180000D01*
X50800000Y-34290000D02*
X50800000Y-37834189D01*
X62437943Y-41910000D02*
X65405000Y-41910000D01*
X65405000Y-30480000D02*
X65405000Y-34290000D01*
X61802943Y-41275000D02*
X62437943Y-41910000D01*
X65405000Y-36830000D02*
X65405000Y-41910000D01*
X70485000Y-34290000D02*
X65405000Y-34290000D01*
X71755000Y-36830000D02*
X65405000Y-36830000D01*
X65405000Y-34290000D02*
X65405000Y-36830000D01*
X42545000Y-33225000D02*
X42905000Y-33585000D01*
X49620000Y-33110000D02*
X50800000Y-34290000D01*
X72390000Y-36195000D02*
X71755000Y-36830000D01*
X38030000Y-30275000D02*
X37695000Y-29940000D01*
X40005000Y-30275000D02*
X38030000Y-30275000D01*
X42545000Y-30275000D02*
X40005000Y-30275000D01*
X48785000Y-31810000D02*
X47250000Y-30275000D01*
X44450000Y-46990000D02*
X48260000Y-43180000D01*
X46990000Y-46990000D02*
X51090000Y-42890000D01*
X51090000Y-42890000D02*
X53265000Y-42890000D01*
X53265000Y-42890000D02*
X59765000Y-42890000D01*
M02*
