G04 #@! TF.GenerationSoftware,KiCad,Pcbnew,7.0.8*
G04 #@! TF.CreationDate,2023-11-04T12:21:20-07:00*
G04 #@! TF.ProjectId,feather-fc,66656174-6865-4722-9d66-632e6b696361,rev?*
G04 #@! TF.SameCoordinates,Original*
G04 #@! TF.FileFunction,Legend,Bot*
G04 #@! TF.FilePolarity,Positive*
%FSLAX46Y46*%
G04 Gerber Fmt 4.6, Leading zero omitted, Abs format (unit mm)*
G04 Created by KiCad (PCBNEW 7.0.8) date 2023-11-04 12:21:20*
%MOMM*%
%LPD*%
G01*
G04 APERTURE LIST*
%ADD10C,0.150000*%
%ADD11C,0.100000*%
%ADD12C,0.120000*%
G04 APERTURE END LIST*
D10*
X69862506Y-44589819D02*
X69862506Y-45304104D01*
X69862506Y-45304104D02*
X69910125Y-45446961D01*
X69910125Y-45446961D02*
X70005363Y-45542200D01*
X70005363Y-45542200D02*
X70148220Y-45589819D01*
X70148220Y-45589819D02*
X70243458Y-45589819D01*
X68910125Y-45589819D02*
X69386315Y-45589819D01*
X69386315Y-45589819D02*
X69386315Y-44589819D01*
X68005363Y-45494580D02*
X68052982Y-45542200D01*
X68052982Y-45542200D02*
X68195839Y-45589819D01*
X68195839Y-45589819D02*
X68291077Y-45589819D01*
X68291077Y-45589819D02*
X68433934Y-45542200D01*
X68433934Y-45542200D02*
X68529172Y-45446961D01*
X68529172Y-45446961D02*
X68576791Y-45351723D01*
X68576791Y-45351723D02*
X68624410Y-45161247D01*
X68624410Y-45161247D02*
X68624410Y-45018390D01*
X68624410Y-45018390D02*
X68576791Y-44827914D01*
X68576791Y-44827914D02*
X68529172Y-44732676D01*
X68529172Y-44732676D02*
X68433934Y-44637438D01*
X68433934Y-44637438D02*
X68291077Y-44589819D01*
X68291077Y-44589819D02*
X68195839Y-44589819D01*
X68195839Y-44589819D02*
X68052982Y-44637438D01*
X68052982Y-44637438D02*
X68005363Y-44685057D01*
X67291077Y-44589819D02*
X67291077Y-45304104D01*
X67291077Y-45304104D02*
X67338696Y-45446961D01*
X67338696Y-45446961D02*
X67433934Y-45542200D01*
X67433934Y-45542200D02*
X67576791Y-45589819D01*
X67576791Y-45589819D02*
X67672029Y-45589819D01*
X66338696Y-45589819D02*
X66814886Y-45589819D01*
X66814886Y-45589819D02*
X66814886Y-44589819D01*
X65433934Y-45494580D02*
X65481553Y-45542200D01*
X65481553Y-45542200D02*
X65624410Y-45589819D01*
X65624410Y-45589819D02*
X65719648Y-45589819D01*
X65719648Y-45589819D02*
X65862505Y-45542200D01*
X65862505Y-45542200D02*
X65957743Y-45446961D01*
X65957743Y-45446961D02*
X66005362Y-45351723D01*
X66005362Y-45351723D02*
X66052981Y-45161247D01*
X66052981Y-45161247D02*
X66052981Y-45018390D01*
X66052981Y-45018390D02*
X66005362Y-44827914D01*
X66005362Y-44827914D02*
X65957743Y-44732676D01*
X65957743Y-44732676D02*
X65862505Y-44637438D01*
X65862505Y-44637438D02*
X65719648Y-44589819D01*
X65719648Y-44589819D02*
X65624410Y-44589819D01*
X65624410Y-44589819D02*
X65481553Y-44637438D01*
X65481553Y-44637438D02*
X65433934Y-44685057D01*
X64719648Y-44589819D02*
X64719648Y-45304104D01*
X64719648Y-45304104D02*
X64767267Y-45446961D01*
X64767267Y-45446961D02*
X64862505Y-45542200D01*
X64862505Y-45542200D02*
X65005362Y-45589819D01*
X65005362Y-45589819D02*
X65100600Y-45589819D01*
X63767267Y-45589819D02*
X64243457Y-45589819D01*
X64243457Y-45589819D02*
X64243457Y-44589819D01*
X62862505Y-45494580D02*
X62910124Y-45542200D01*
X62910124Y-45542200D02*
X63052981Y-45589819D01*
X63052981Y-45589819D02*
X63148219Y-45589819D01*
X63148219Y-45589819D02*
X63291076Y-45542200D01*
X63291076Y-45542200D02*
X63386314Y-45446961D01*
X63386314Y-45446961D02*
X63433933Y-45351723D01*
X63433933Y-45351723D02*
X63481552Y-45161247D01*
X63481552Y-45161247D02*
X63481552Y-45018390D01*
X63481552Y-45018390D02*
X63433933Y-44827914D01*
X63433933Y-44827914D02*
X63386314Y-44732676D01*
X63386314Y-44732676D02*
X63291076Y-44637438D01*
X63291076Y-44637438D02*
X63148219Y-44589819D01*
X63148219Y-44589819D02*
X63052981Y-44589819D01*
X63052981Y-44589819D02*
X62910124Y-44637438D01*
X62910124Y-44637438D02*
X62862505Y-44685057D01*
X62148219Y-44589819D02*
X62148219Y-45304104D01*
X62148219Y-45304104D02*
X62195838Y-45446961D01*
X62195838Y-45446961D02*
X62291076Y-45542200D01*
X62291076Y-45542200D02*
X62433933Y-45589819D01*
X62433933Y-45589819D02*
X62529171Y-45589819D01*
X61195838Y-45589819D02*
X61672028Y-45589819D01*
X61672028Y-45589819D02*
X61672028Y-44589819D01*
X60291076Y-45494580D02*
X60338695Y-45542200D01*
X60338695Y-45542200D02*
X60481552Y-45589819D01*
X60481552Y-45589819D02*
X60576790Y-45589819D01*
X60576790Y-45589819D02*
X60719647Y-45542200D01*
X60719647Y-45542200D02*
X60814885Y-45446961D01*
X60814885Y-45446961D02*
X60862504Y-45351723D01*
X60862504Y-45351723D02*
X60910123Y-45161247D01*
X60910123Y-45161247D02*
X60910123Y-45018390D01*
X60910123Y-45018390D02*
X60862504Y-44827914D01*
X60862504Y-44827914D02*
X60814885Y-44732676D01*
X60814885Y-44732676D02*
X60719647Y-44637438D01*
X60719647Y-44637438D02*
X60576790Y-44589819D01*
X60576790Y-44589819D02*
X60481552Y-44589819D01*
X60481552Y-44589819D02*
X60338695Y-44637438D01*
X60338695Y-44637438D02*
X60291076Y-44685057D01*
D11*
X34117068Y-42333014D02*
X33652782Y-42333014D01*
X33652782Y-42333014D02*
X33902782Y-42618728D01*
X33902782Y-42618728D02*
X33795639Y-42618728D01*
X33795639Y-42618728D02*
X33724211Y-42654442D01*
X33724211Y-42654442D02*
X33688496Y-42690157D01*
X33688496Y-42690157D02*
X33652782Y-42761585D01*
X33652782Y-42761585D02*
X33652782Y-42940157D01*
X33652782Y-42940157D02*
X33688496Y-43011585D01*
X33688496Y-43011585D02*
X33724211Y-43047300D01*
X33724211Y-43047300D02*
X33795639Y-43083014D01*
X33795639Y-43083014D02*
X34009925Y-43083014D01*
X34009925Y-43083014D02*
X34081353Y-43047300D01*
X34081353Y-43047300D02*
X34117068Y-43011585D01*
X33402782Y-42583014D02*
X33224210Y-43083014D01*
X33224210Y-43083014D02*
X33045639Y-42583014D01*
X32295638Y-42583014D02*
X32009924Y-42583014D01*
X32188495Y-42333014D02*
X32188495Y-42975871D01*
X32188495Y-42975871D02*
X32152781Y-43047300D01*
X32152781Y-43047300D02*
X32081352Y-43083014D01*
X32081352Y-43083014D02*
X32009924Y-43083014D01*
X31652781Y-43083014D02*
X31724210Y-43047300D01*
X31724210Y-43047300D02*
X31759924Y-43011585D01*
X31759924Y-43011585D02*
X31795638Y-42940157D01*
X31795638Y-42940157D02*
X31795638Y-42725871D01*
X31795638Y-42725871D02*
X31759924Y-42654442D01*
X31759924Y-42654442D02*
X31724210Y-42618728D01*
X31724210Y-42618728D02*
X31652781Y-42583014D01*
X31652781Y-42583014D02*
X31545638Y-42583014D01*
X31545638Y-42583014D02*
X31474210Y-42618728D01*
X31474210Y-42618728D02*
X31438496Y-42654442D01*
X31438496Y-42654442D02*
X31402781Y-42725871D01*
X31402781Y-42725871D02*
X31402781Y-42940157D01*
X31402781Y-42940157D02*
X31438496Y-43011585D01*
X31438496Y-43011585D02*
X31474210Y-43047300D01*
X31474210Y-43047300D02*
X31545638Y-43083014D01*
X31545638Y-43083014D02*
X31652781Y-43083014D01*
X30617067Y-42583014D02*
X30331353Y-42583014D01*
X30509924Y-43083014D02*
X30509924Y-42440157D01*
X30509924Y-42440157D02*
X30474210Y-42368728D01*
X30474210Y-42368728D02*
X30402781Y-42333014D01*
X30402781Y-42333014D02*
X30331353Y-42333014D01*
X29795639Y-43047300D02*
X29867067Y-43083014D01*
X29867067Y-43083014D02*
X30009925Y-43083014D01*
X30009925Y-43083014D02*
X30081353Y-43047300D01*
X30081353Y-43047300D02*
X30117067Y-42975871D01*
X30117067Y-42975871D02*
X30117067Y-42690157D01*
X30117067Y-42690157D02*
X30081353Y-42618728D01*
X30081353Y-42618728D02*
X30009925Y-42583014D01*
X30009925Y-42583014D02*
X29867067Y-42583014D01*
X29867067Y-42583014D02*
X29795639Y-42618728D01*
X29795639Y-42618728D02*
X29759925Y-42690157D01*
X29759925Y-42690157D02*
X29759925Y-42761585D01*
X29759925Y-42761585D02*
X30117067Y-42833014D01*
X29117068Y-43083014D02*
X29117068Y-42690157D01*
X29117068Y-42690157D02*
X29152782Y-42618728D01*
X29152782Y-42618728D02*
X29224210Y-42583014D01*
X29224210Y-42583014D02*
X29367068Y-42583014D01*
X29367068Y-42583014D02*
X29438496Y-42618728D01*
X29117068Y-43047300D02*
X29188496Y-43083014D01*
X29188496Y-43083014D02*
X29367068Y-43083014D01*
X29367068Y-43083014D02*
X29438496Y-43047300D01*
X29438496Y-43047300D02*
X29474210Y-42975871D01*
X29474210Y-42975871D02*
X29474210Y-42904442D01*
X29474210Y-42904442D02*
X29438496Y-42833014D01*
X29438496Y-42833014D02*
X29367068Y-42797300D01*
X29367068Y-42797300D02*
X29188496Y-42797300D01*
X29188496Y-42797300D02*
X29117068Y-42761585D01*
X28867068Y-42583014D02*
X28581354Y-42583014D01*
X28759925Y-42333014D02*
X28759925Y-42975871D01*
X28759925Y-42975871D02*
X28724211Y-43047300D01*
X28724211Y-43047300D02*
X28652782Y-43083014D01*
X28652782Y-43083014D02*
X28581354Y-43083014D01*
X28331354Y-43083014D02*
X28331354Y-42333014D01*
X28009926Y-43083014D02*
X28009926Y-42690157D01*
X28009926Y-42690157D02*
X28045640Y-42618728D01*
X28045640Y-42618728D02*
X28117068Y-42583014D01*
X28117068Y-42583014D02*
X28224211Y-42583014D01*
X28224211Y-42583014D02*
X28295640Y-42618728D01*
X28295640Y-42618728D02*
X28331354Y-42654442D01*
X27367069Y-43047300D02*
X27438497Y-43083014D01*
X27438497Y-43083014D02*
X27581355Y-43083014D01*
X27581355Y-43083014D02*
X27652783Y-43047300D01*
X27652783Y-43047300D02*
X27688497Y-42975871D01*
X27688497Y-42975871D02*
X27688497Y-42690157D01*
X27688497Y-42690157D02*
X27652783Y-42618728D01*
X27652783Y-42618728D02*
X27581355Y-42583014D01*
X27581355Y-42583014D02*
X27438497Y-42583014D01*
X27438497Y-42583014D02*
X27367069Y-42618728D01*
X27367069Y-42618728D02*
X27331355Y-42690157D01*
X27331355Y-42690157D02*
X27331355Y-42761585D01*
X27331355Y-42761585D02*
X27688497Y-42833014D01*
X27009926Y-43083014D02*
X27009926Y-42583014D01*
X27009926Y-42725871D02*
X26974212Y-42654442D01*
X26974212Y-42654442D02*
X26938498Y-42618728D01*
X26938498Y-42618728D02*
X26867069Y-42583014D01*
X26867069Y-42583014D02*
X26795640Y-42583014D01*
D12*
X34420000Y-44750000D02*
X34420000Y-44150000D01*
X33720000Y-43450000D02*
X32320000Y-43450000D01*
X32320000Y-45450000D02*
X33720000Y-45450000D01*
X31620000Y-44150000D02*
X31620000Y-44750000D01*
X33720000Y-45450000D02*
G75*
G03*
X34420000Y-44750000I1J699999D01*
G01*
X34420000Y-44150000D02*
G75*
G03*
X33720000Y-43450000I-699999J1D01*
G01*
X31620000Y-44750000D02*
G75*
G03*
X32320000Y-45450000I700000J0D01*
G01*
X32320000Y-43450000D02*
G75*
G03*
X31620000Y-44150000I0J-700000D01*
G01*
M02*
